<svg width="168" height="48" viewBox="0 0 168 48" fill="none" xmlns="http://www.w3.org/2000/svg">
<path d="M167.338 42.5979C167.338 45.1558 165.199 47.2278 162.554 47.2278H5.99444C3.35037 47.2278 1.20416 45.1558 1.20416 42.5979V5.67533C1.20416 3.11856 3.35037 1.03931 5.99444 1.03931H162.552C165.199 1.03931 167.336 3.11856 167.336 5.67533L167.338 42.5979Z" fill="black"/>
<path d="M161.778 0.961503C164.659 0.961503 167.003 3.222 167.003 6V42C167.003 44.778 164.659 47.0385 161.778 47.0385H6.22222C3.34133 47.0385 0.997111 44.778 0.997111 42V6C0.997111 3.222 3.34133 0.961503 6.22222 0.961503H161.778ZM161.778 2.53677e-06H6.22222C2.80156 2.53677e-06 0 2.7015 0 6V42C0 45.2985 2.80156 48 6.22222 48H161.778C165.198 48 168 45.2985 168 42V6C168 2.7015 165.198 2.53677e-06 161.778 2.53677e-06Z" fill="#A6A6A6"/>
<path d="M37.2274 23.3401C37.1914 19.4725 40.5115 17.591 40.6634 17.5034C38.783 14.8598 35.8685 14.4986 34.8443 14.4698C32.3965 14.2214 30.0221 15.8822 28.7751 15.8822C27.5033 15.8822 25.5831 14.4938 23.5136 14.5346C20.8505 14.5742 18.3591 16.061 16.9927 18.3698C14.1728 23.0773 16.2759 29.9953 18.9776 33.8005C20.3291 35.6641 21.9083 37.7449 23.9753 37.6716C25.9975 37.5913 26.7529 36.4285 29.1933 36.4285C31.6112 36.4285 32.3206 37.6716 34.4287 37.6248C36.599 37.5913 37.9654 35.7529 39.2696 33.8725C40.8314 31.7365 41.4586 29.6329 41.4835 29.5249C41.4324 29.5081 37.2685 27.9757 37.2274 23.3401Z" fill="white"/>
<path d="M33.2452 11.9666C34.3329 10.655 35.077 8.8706 34.8705 7.05981C33.2962 7.12701 31.3275 8.10981 30.1938 9.3926C29.1908 10.523 28.2948 12.3758 28.5263 14.1182C30.2946 14.2454 32.1103 13.2578 33.2452 11.9666Z" fill="white"/>
<path d="M66.9629 37.4789H64.1368L62.5887 32.7881H57.2077L55.733 37.4789H52.9816L58.3128 21.5093H61.6056L66.9629 37.4789ZM62.122 30.8201L60.722 26.6501C60.5739 26.2241 60.2964 25.2209 59.887 23.6417H59.8372C59.6742 24.3209 59.4116 25.3241 59.0507 26.6501L57.6756 30.8201H62.122Z" fill="white"/>
<path d="M80.135 32.1782C80.135 34.1366 79.5862 35.6846 78.4886 36.821C77.5055 37.8326 76.2847 38.3378 74.8275 38.3378C73.2545 38.3378 72.1245 37.793 71.4364 36.7034H71.3866V42.7695H68.7334V30.3529C68.7334 29.1217 68.6998 27.8581 68.6351 26.5621H70.9685L71.1165 28.3873H71.1663C72.0511 27.0121 73.3939 26.3257 75.1958 26.3257C76.6045 26.3257 77.7805 26.8621 78.7213 27.9361C79.6646 29.0113 80.135 30.4249 80.135 32.1782ZM77.4321 32.2718C77.4321 31.1509 77.1708 30.2269 76.6456 29.4997C76.0719 28.7413 75.3016 28.3621 74.3359 28.3621C73.6813 28.3621 73.0865 28.5733 72.5551 28.9897C72.0225 29.4097 71.6741 29.9581 71.511 30.6373C71.4289 30.9541 71.3878 31.2133 71.3878 31.4173V33.3374C71.3878 34.175 71.6541 34.8818 72.1868 35.459C72.7194 36.0362 73.4113 36.3242 74.2625 36.3242C75.2618 36.3242 76.0396 35.9522 76.5958 35.2106C77.1533 34.4678 77.4321 33.4886 77.4321 32.2718Z" fill="white"/>
<path d="M94.5834 32.1782C94.5834 34.1366 94.0346 35.6846 92.9357 36.821C91.9539 37.8326 90.733 38.3378 89.2758 38.3378C87.7028 38.3378 86.5728 37.793 85.8859 36.7034H85.8361V42.7695H83.183V30.3529C83.183 29.1217 83.1494 27.8581 83.0847 26.5621H85.418L85.5661 28.3873H85.6159C86.4994 27.0121 87.8422 26.3257 89.6454 26.3257C91.0529 26.3257 92.2289 26.8621 93.1722 27.9361C94.1117 29.0113 94.5834 30.4249 94.5834 32.1782ZM91.8804 32.2718C91.8804 31.1509 91.6178 30.2269 91.0927 29.4997C90.519 28.7413 89.7512 28.3621 88.7842 28.3621C88.1284 28.3621 87.5348 28.5733 87.0022 28.9897C86.4696 29.4097 86.1224 29.9581 85.9593 30.6373C85.8784 30.9541 85.8361 31.2133 85.8361 31.4173V33.3374C85.8361 34.175 86.1024 34.8818 86.6326 35.459C87.1652 36.035 87.8571 36.3242 88.7108 36.3242C89.7101 36.3242 90.4879 35.9522 91.0442 35.2106C91.6017 34.4678 91.8804 33.4886 91.8804 32.2718Z" fill="white"/>
<path d="M110.216 33.2343C110.216 34.5927 109.727 35.6979 108.745 36.5511C107.667 37.4835 106.165 37.9491 104.234 37.9491C102.452 37.9491 101.024 37.6179 99.9424 36.9543L100.557 34.8219C101.722 35.5011 103 35.8419 104.392 35.8419C105.392 35.8419 106.17 35.6235 106.728 35.1891C107.285 34.7547 107.562 34.1715 107.562 33.4443C107.562 32.7963 107.333 32.2503 106.874 31.8075C106.417 31.3647 105.654 30.9531 104.589 30.5727C101.69 29.5299 100.241 28.0024 100.241 25.9936C100.241 24.6808 100.749 23.6044 101.765 22.7668C102.778 21.928 104.13 21.5092 105.82 21.5092C107.327 21.5092 108.579 21.7624 109.578 22.2676L108.915 24.3532C107.981 23.8636 106.926 23.6188 105.745 23.6188C104.812 23.6188 104.083 23.8408 103.56 24.2824C103.118 24.6772 102.897 25.1584 102.897 25.7284C102.897 26.3596 103.149 26.8815 103.657 27.2919C104.099 27.6711 104.901 28.0815 106.066 28.5243C107.491 29.0775 108.538 29.7243 109.211 30.4659C109.882 31.2051 110.216 32.1303 110.216 33.2343Z" fill="white"/>
<path d="M118.052 28.7068H115.128V34.2977C115.128 35.7197 115.643 36.4301 116.676 36.4301C117.15 36.4301 117.543 36.3905 117.854 36.3113L117.928 38.2541C117.405 38.4425 116.717 38.5373 115.864 38.5373C114.816 38.5373 113.998 38.2289 113.407 37.6133C112.818 36.9965 112.522 35.9621 112.522 34.5089V28.7044H110.779V26.7844H112.522V24.676L115.128 23.9176V26.7844H118.052V28.7068Z" fill="white"/>
<path d="M132.109 32.2236C132.109 33.9936 131.584 35.4468 130.536 36.5832C129.437 37.7531 127.979 38.3363 126.161 38.3363C124.408 38.3363 123.013 37.7759 121.973 36.6552C120.933 35.5344 120.412 34.1196 120.412 32.4144C120.412 30.63 120.948 29.1685 122.022 28.0321C123.093 26.8945 124.539 26.3257 126.357 26.3257C128.109 26.3257 129.519 26.8861 130.583 28.0081C131.601 29.0965 132.109 30.5016 132.109 32.2236ZM129.356 32.3064C129.356 31.2444 129.121 30.3336 128.644 29.574C128.088 28.6549 127.293 28.1965 126.263 28.1965C125.196 28.1965 124.386 28.6561 123.83 29.574C123.353 30.3348 123.118 31.26 123.118 32.3544C123.118 33.4164 123.353 34.3272 123.83 35.0856C124.403 36.0048 125.205 36.4632 126.239 36.4632C127.252 36.4632 128.047 35.9952 128.621 35.0616C129.11 34.2876 129.356 33.3672 129.356 32.3064Z" fill="white"/>
<path d="M140.047 28.8121C139.784 28.7653 139.504 28.7413 139.211 28.7413C138.277 28.7413 137.555 29.0809 137.048 29.7613C136.606 30.3613 136.384 31.1197 136.384 32.0353V38.0773H133.733L133.757 30.1885C133.757 28.8613 133.724 27.6529 133.658 26.5633H135.969L136.066 28.7665H136.139C136.419 28.0093 136.861 27.3997 137.466 26.9425C138.057 26.5309 138.695 26.3257 139.384 26.3257C139.629 26.3257 139.85 26.3425 140.047 26.3725V28.8121Z" fill="white"/>
<path d="M152.699 31.7965C152.699 32.2549 152.668 32.6413 152.602 32.9569H144.643C144.674 34.0945 145.059 34.9645 145.798 35.5645C146.469 36.1009 147.336 36.3697 148.401 36.3697C149.58 36.3697 150.655 36.1885 151.622 35.8249L152.037 37.6009C150.907 38.0761 149.573 38.3125 148.034 38.3125C146.182 38.3125 144.729 37.7869 143.671 36.7369C142.616 35.6869 142.087 34.2769 142.087 32.5081C142.087 30.7717 142.578 29.3257 143.563 28.1725C144.593 26.9413 145.986 26.3257 147.738 26.3257C149.459 26.3257 150.762 26.9413 151.647 28.1725C152.347 29.1505 152.699 30.3601 152.699 31.7965ZM150.17 31.1329C150.187 30.3745 150.014 29.7193 149.654 29.1661C149.195 28.4545 148.489 28.0993 147.54 28.0993C146.673 28.0993 145.967 28.4461 145.428 29.1421C144.986 29.6953 144.724 30.3589 144.643 31.1317H150.17V31.1329Z" fill="white"/>
<path d="M60.8733 12.0595C60.8733 13.4719 60.434 14.5351 59.5566 15.2491C58.744 15.9078 57.5892 16.2378 56.0933 16.2378C55.3517 16.2378 54.717 16.2066 54.1856 16.1442V8.42723C54.8788 8.31924 55.6254 8.26404 56.4318 8.26404C57.8567 8.26404 58.9307 8.56283 59.655 9.16041C60.4663 9.836 60.8733 10.802 60.8733 12.0595ZM59.4982 12.0943C59.4982 11.1788 59.2468 10.4768 58.744 9.98719C58.2413 9.4988 57.507 9.25401 56.5401 9.25401C56.1294 9.25401 55.7797 9.28041 55.4898 9.33561V15.2023C55.6503 15.2263 55.944 15.2371 56.3709 15.2371C57.3689 15.2371 58.1392 14.9695 58.6818 14.4343C59.2244 13.8991 59.4982 13.1191 59.4982 12.0943Z" fill="white"/>
<path d="M68.3603 13.569C68.3603 14.439 68.1027 15.1518 67.5874 15.711C67.0473 16.2858 66.3318 16.5726 65.4382 16.5726C64.577 16.5726 63.8913 16.2978 63.3799 15.7458C62.8696 15.195 62.6145 14.5002 62.6145 13.6626C62.6145 12.7866 62.8771 12.0678 63.4047 11.5098C63.9324 10.9518 64.6418 10.6722 65.5353 10.6722C66.3965 10.6722 67.0884 10.947 67.6123 11.4978C68.1101 12.033 68.3603 12.7242 68.3603 13.569ZM67.0075 13.6098C67.0075 13.0878 66.8905 12.6402 66.6578 12.267C66.384 11.8158 65.9945 11.5902 65.488 11.5902C64.9641 11.5902 64.5658 11.8158 64.2921 12.267C64.0581 12.6402 63.9424 13.095 63.9424 13.6326C63.9424 14.1546 64.0593 14.6022 64.2921 14.9754C64.5746 15.4266 64.9678 15.6522 65.4756 15.6522C65.9733 15.6522 66.3641 15.423 66.6454 14.9634C66.8868 14.583 67.0075 14.1318 67.0075 13.6098Z" fill="white"/>
<path d="M78.3387 10.6722L76.5032 16.3289H75.3085L74.5482 13.8726C74.3553 13.2594 74.1985 12.6498 74.0766 12.045H74.0529C73.9397 12.6666 73.7829 13.275 73.5813 13.8726L72.7736 16.3289H71.5653L69.8393 10.6722H71.1795L71.8428 13.3614C72.0033 13.9974 72.1353 14.6034 72.241 15.1769H72.2647C72.3617 14.7042 72.5223 14.1018 72.7488 13.3734L73.5813 10.6734H74.644L75.4417 13.3158C75.6346 13.9602 75.7914 14.5806 75.9121 15.1781H75.9482C76.0365 14.5962 76.1697 13.9758 76.3464 13.3158L77.0582 10.6734H78.3387V10.6722Z" fill="white"/>
<path d="M84.6143 16.4477H83.3101V13.2078C83.3101 12.2094 82.9169 11.7102 82.1279 11.7102C81.7409 11.7102 81.4286 11.847 81.1859 12.1218C80.9457 12.3966 80.8238 12.7206 80.8238 13.0914V16.4465H79.5196V12.4074C79.5196 11.9106 79.5035 11.3718 79.4724 10.7886H80.6185L80.6794 11.673H80.7155C80.8673 11.3982 81.0938 11.1714 81.3912 10.9902C81.7447 10.779 82.1404 10.6722 82.5734 10.6722C83.121 10.6722 83.5764 10.8426 83.9386 11.1846C84.389 11.6034 84.6143 12.2286 84.6143 13.059V16.4477Z" fill="white"/>
<path d="M88 16.5162H86.697V8.26404H88V16.5162Z" fill="white"/>
<path d="M96.055 13.569C96.055 14.439 95.7974 15.1518 95.2822 15.711C94.7421 16.2858 94.0253 16.5726 93.133 16.5726C92.2706 16.5726 91.5849 16.2978 91.0747 15.7458C90.5645 15.195 90.3094 14.5002 90.3094 13.6626C90.3094 12.7866 90.5719 12.0678 91.0996 11.5098C91.6272 10.9518 92.3366 10.6722 93.2288 10.6722C94.0912 10.6722 94.7819 10.947 95.307 11.4978C95.8048 12.033 96.055 12.7242 96.055 13.569ZM94.701 13.6098C94.701 13.0878 94.584 12.6402 94.3513 12.267C94.0788 11.8158 93.688 11.5902 93.1828 11.5902C92.6576 11.5902 92.2594 11.8158 91.9869 12.267C91.7529 12.6402 91.6372 13.095 91.6372 13.6326C91.6372 14.1546 91.7542 14.6022 91.9869 14.9754C92.2694 15.4266 92.6626 15.6522 93.1703 15.6522C93.6681 15.6522 94.0576 15.423 94.3389 14.9634C94.5815 14.583 94.701 14.1318 94.701 13.6098Z" fill="white"/>
<path d="M102.35 16.4442H101.179L101.082 15.7926H101.046C100.645 16.3122 100.074 16.5726 99.3323 16.5726C98.7785 16.5726 98.3306 16.401 97.9933 16.0602C97.6872 15.7506 97.5341 15.3654 97.5341 14.9082C97.5341 14.217 97.8328 13.6902 98.4338 13.3254C99.0336 12.9606 99.8774 12.7818 100.964 12.7902V12.6846C100.964 11.9394 100.558 11.5674 99.7455 11.5674C99.1668 11.5674 98.6566 11.7078 98.2161 11.9862L97.951 11.1606C98.4961 10.8354 99.1693 10.6722 99.9632 10.6722C101.496 10.6722 102.265 11.4522 102.265 13.0122V15.0954C102.265 15.6606 102.294 16.1106 102.35 16.4442ZM100.996 14.5002V13.6278C99.5575 13.6038 98.8383 13.9842 98.8383 14.7678C98.8383 15.063 98.9204 15.2838 99.0884 15.4314C99.2564 15.579 99.4704 15.6522 99.7255 15.6522C100.012 15.6522 100.279 15.5646 100.523 15.3906C100.768 15.2154 100.919 14.9934 100.975 14.721C100.989 14.6598 100.996 14.5854 100.996 14.5002Z" fill="white"/>
<path d="M109.155 16.5163H107.997L107.936 15.6079H107.9C107.531 16.2991 106.901 16.6447 106.016 16.6447C105.309 16.6447 104.721 16.3771 104.254 15.8419C103.787 15.3067 103.555 14.6119 103.555 13.7587C103.555 12.8432 103.807 12.1016 104.315 11.5352C104.807 11.0072 105.409 10.7432 106.126 10.7432C106.913 10.7432 107.465 10.9988 107.778 11.5112H107.803V8.26404H109.109V14.9923C109.109 15.5431 109.124 16.0507 109.155 16.5163ZM107.803 14.1307V13.1876C107.803 13.0244 107.791 12.8924 107.767 12.7916C107.694 12.4892 107.536 12.2348 107.296 12.0296C107.053 11.8244 106.76 11.7212 106.423 11.7212C105.937 11.7212 105.556 11.9072 105.276 12.2804C104.998 12.6536 104.858 13.13 104.858 13.7119C104.858 14.2711 104.991 14.7247 105.258 15.0739C105.541 15.4459 105.922 15.6319 106.398 15.6319C106.826 15.6319 107.169 15.4771 107.429 15.1663C107.68 14.8795 107.803 14.5339 107.803 14.1307Z" fill="white"/>
<path d="M121.342 13.569C121.342 14.439 121.084 15.1518 120.569 15.711C120.029 16.2858 119.314 16.5726 118.42 16.5726C117.56 16.5726 116.874 16.2978 116.361 15.7458C115.851 15.195 115.596 14.5002 115.596 13.6626C115.596 12.7866 115.859 12.0678 116.386 11.5098C116.914 10.9518 117.623 10.6722 118.518 10.6722C119.378 10.6722 120.071 10.947 120.594 11.4978C121.091 12.033 121.342 12.7242 121.342 13.569ZM119.99 13.6098C119.99 13.0878 119.873 12.6402 119.64 12.267C119.365 11.8158 118.977 11.5902 118.469 11.5902C117.947 11.5902 117.549 11.8158 117.274 12.267C117.04 12.6402 116.924 13.095 116.924 13.6326C116.924 14.1546 117.041 14.6022 117.274 14.9754C117.556 15.4266 117.949 15.6522 118.457 15.6522C118.955 15.6522 119.347 15.423 119.628 14.9634C119.868 14.583 119.99 14.1318 119.99 13.6098Z" fill="white"/>
<path d="M127.962 16.4477H126.659V13.2078C126.659 12.2094 126.265 11.7102 125.475 11.7102C125.088 11.7102 124.776 11.847 124.534 12.1218C124.293 12.3966 124.172 12.7206 124.172 13.0914V16.4465H122.867V12.4074C122.867 11.9106 122.852 11.3718 122.821 10.7886H123.966L124.027 11.673H124.063C124.216 11.3982 124.442 11.1714 124.738 10.9902C125.093 10.779 125.488 10.6722 125.922 10.6722C126.468 10.6722 126.924 10.8426 127.286 11.1846C127.738 11.6034 127.962 12.2286 127.962 13.059V16.4477Z" fill="white"/>
<path d="M137.231 11.8189H135.795V14.5669C135.795 15.2653 136.05 15.6145 136.555 15.6145C136.789 15.6145 136.983 15.5953 137.136 15.5557L137.17 16.5097C136.912 16.6033 136.574 16.6501 136.157 16.6501C135.642 16.6501 135.241 16.4989 134.951 16.1965C134.66 15.8941 134.515 15.3853 134.515 14.6713V11.8189H133.658V10.8768H134.515V9.84002L135.793 9.46802V10.8756H137.229V11.8189H137.231Z" fill="white"/>
<path d="M143.569 16.5162H142.264V13.3003C142.264 12.2863 141.87 11.7787 141.083 11.7787C140.478 11.7787 140.065 12.0727 139.838 12.6607C139.8 12.7843 139.777 12.9355 139.777 13.1131V16.515H138.474V8.26404H139.777V11.6731H139.802C140.213 11.0528 140.801 10.7432 141.564 10.7432C142.104 10.7432 142.551 10.9136 142.906 11.2556C143.347 11.6815 143.569 12.3151 143.569 13.1527V16.5162Z" fill="white"/>
<path d="M150.915 13.359C150.915 13.5846 150.897 13.7742 150.866 13.929H146.955C146.972 14.4882 147.159 14.9142 147.521 15.2094C147.852 15.4734 148.279 15.6054 148.802 15.6054C149.38 15.6054 149.908 15.5166 150.383 15.3378L150.587 16.2114C150.031 16.4442 149.376 16.5606 148.619 16.5606C147.71 16.5606 146.995 16.3026 146.477 15.7866C145.957 15.2706 145.699 14.5782 145.699 13.7094C145.699 12.8562 145.939 12.1458 146.423 11.5794C146.929 10.9746 147.612 10.6722 148.474 10.6722C149.318 10.6722 149.959 10.9746 150.392 11.5794C150.742 12.0594 150.915 12.6534 150.915 13.359ZM149.67 13.0338C149.68 12.6606 149.594 12.339 149.418 12.0678C149.191 11.7186 148.846 11.5434 148.38 11.5434C147.954 11.5434 147.607 11.7138 147.342 12.0558C147.125 12.3282 146.997 12.6534 146.955 13.0338H149.67Z" fill="white"/>
</svg>
