<svg width="37" height="37" viewBox="0 0 37 37" fill="none" xmlns="http://www.w3.org/2000/svg">
<circle cx="18.5" cy="18.5" r="18.5" transform="matrix(1 0 0 -1 0 37)" fill="url(#paint0_linear_725_7823)"/>
<path d="M23.3451 11.569C23.3301 11.5713 23.3153 11.5743 23.3006 11.578C23.2775 11.5839 23.256 11.591 23.241 11.5964C23.054 11.6522 22.8931 11.7766 22.792 11.9468L16.5245 21.8444L12.433 18.0845C12.2395 17.8633 11.9361 17.7681 11.648 17.8452C11.34 17.9275 11.1231 18.187 11.0791 18.4893C11.0371 18.7768 11.1561 19.067 11.3935 19.2393L16.1575 23.6338L16.1574 23.6338L16.1633 23.6391C16.3346 23.7917 16.5651 23.861 16.7932 23.8265C17.0183 23.7924 17.2158 23.662 17.3363 23.4697C17.3367 23.4691 17.337 23.4686 17.3373 23.468L24.1071 12.7829C24.278 12.5277 24.2846 12.1957 24.1251 11.934C23.9619 11.6661 23.6546 11.5222 23.3451 11.569Z" fill="white" stroke="white" stroke-width="0.914501" stroke-linejoin="round"/>
<defs>
<linearGradient id="paint0_linear_725_7823" x1="1.51025e-08" y1="18.5" x2="53.6557" y2="19.5273" gradientUnits="userSpaceOnUse">
<stop stop-color="#904E95"/>
<stop offset="1" stop-color="#E96443"/>
</linearGradient>
</defs>
</svg>
