<svg width="169" height="48" viewBox="0 0 169 48" fill="none" xmlns="http://www.w3.org/2000/svg">
<path d="M162.774 48H7.2185C3.79783 48 0.996277 45.2986 0.996277 42.0002V6.00164C0.996277 2.70327 3.79783 0.00187803 7.2185 0.00187803H162.774C166.195 0.00187803 168.996 2.70327 168.996 6.00164V42.0002C168.996 45.2986 166.195 48 162.774 48Z" fill="black"/>
<path d="M162.774 0.963341C165.655 0.963341 167.999 3.22375 167.999 6.00164V42.0002C167.999 44.7781 165.655 47.0385 162.774 47.0385H7.2185C4.33761 47.0385 1.99339 44.7781 1.99339 42.0002V6.00164C1.99339 3.22375 4.33761 0.963341 7.2185 0.963341H162.774ZM162.774 0.00187803H7.2185C3.79783 0.00187803 0.996277 2.70327 0.996277 6.00164V42.0002C0.996277 45.2986 3.79783 48 7.2185 48H162.774C166.195 48 168.996 45.2986 168.996 42.0002V6.00164C168.996 2.70327 166.195 0.00187803 162.774 0.00187803Z" fill="#A6A6A6"/>
<path d="M60.3223 12.3205C60.3223 13.3226 60.0112 14.1252 59.3982 14.7237C58.6934 15.4333 57.7755 15.7903 56.6507 15.7903C55.5756 15.7903 54.6577 15.4273 53.9047 14.7117C53.1502 13.9856 52.7737 13.0945 52.7737 12.0279C52.7737 10.9613 53.1502 10.0702 53.9047 9.35012C54.6577 8.62854 55.5756 8.2655 56.6507 8.2655C57.1859 8.2655 57.6962 8.37201 58.1831 8.57004C58.6685 8.76956 59.0637 9.03959 59.35 9.37263L58.6997 10.0057C58.2003 9.43713 57.5204 9.1566 56.6507 9.1566C55.8666 9.1566 55.1867 9.42063 54.6095 9.95319C54.0385 10.4872 53.7523 11.1788 53.7523 12.0279C53.7523 12.877 54.0385 13.5746 54.6095 14.1086C55.1867 14.6352 55.8666 14.9052 56.6507 14.9052C57.483 14.9052 58.1831 14.6352 58.7354 14.1026C59.0995 13.7501 59.3064 13.2641 59.3609 12.643H56.6507V11.7759H60.2663C60.3099 11.9634 60.3223 12.1449 60.3223 12.3205Z" fill="white" stroke="white" stroke-width="0.147269" stroke-miterlimit="10"/>
<path d="M65.5605 9.14908H62.164V11.4293H65.226V12.2964H62.164V14.5766H65.5605V15.4602H61.2025V8.2655H65.5605V9.14908Z" fill="white" stroke="white" stroke-width="0.147269" stroke-miterlimit="10"/>
<path d="M70.2678 15.4602H69.3064V9.14908H67.2231V8.2655H72.3526V9.14908H70.2678V15.4602Z" fill="white" stroke="white" stroke-width="0.147269" stroke-miterlimit="10"/>
<path d="M75.652 15.4602V8.2655H76.612V15.4602H75.652Z" fill="white" stroke="white" stroke-width="0.147269" stroke-miterlimit="10"/>
<path d="M81.1049 15.4602H80.1512V9.14908H78.0602V8.2655H83.1959V9.14908H81.1049V15.4602Z" fill="white" stroke="white" stroke-width="0.147269" stroke-miterlimit="10"/>
<path d="M93.0655 14.6997C92.3296 15.4273 91.4179 15.7903 90.3304 15.7903C89.2367 15.7903 88.325 15.4273 87.5891 14.6997C86.8547 13.9736 86.4891 13.0825 86.4891 12.0279C86.4891 10.9733 86.8547 10.0822 87.5891 9.35612C88.325 8.62854 89.2367 8.2655 90.3304 8.2655C91.4116 8.2655 92.3233 8.62854 93.0592 9.36212C93.7998 10.0942 94.1654 10.9793 94.1654 12.0279C94.1654 13.0825 93.7998 13.9736 93.0655 14.6997ZM88.3001 14.0966C88.8539 14.6352 89.5276 14.9052 90.3304 14.9052C91.1269 14.9052 91.8068 14.6352 92.3545 14.0966C92.9068 13.5581 93.1868 12.8665 93.1868 12.0279C93.1868 11.1893 92.9068 10.4978 92.3545 9.95919C91.8068 9.42063 91.1269 9.1506 90.3304 9.1506C89.5276 9.1506 88.8539 9.42063 88.3001 9.95919C87.7478 10.4978 87.4677 11.1893 87.4677 12.0279C87.4677 12.8665 87.7478 13.5581 88.3001 14.0966Z" fill="white" stroke="white" stroke-width="0.147269" stroke-miterlimit="10"/>
<path d="M94.918 15.4602V8.2655H96.0848L99.7129 13.861H99.7549L99.7129 12.4779V8.2655H100.673V15.4602H99.6709L95.8717 9.58862H95.8297L95.8717 10.9778V15.4602H94.918Z" fill="white" stroke="white" stroke-width="0.147269" stroke-miterlimit="10"/>
<path d="M85.2877 25.9861C82.3648 25.9861 79.977 28.131 79.977 31.0904C79.977 34.0258 82.3648 36.1932 85.2877 36.1932C88.2168 36.1932 90.6046 34.0258 90.6046 31.0904C90.6046 28.131 88.2168 25.9861 85.2877 25.9861ZM85.2877 34.1833C83.6839 34.1833 82.3042 32.9068 82.3042 31.0904C82.3042 29.25 83.6839 27.996 85.2877 27.996C86.8915 27.996 88.2775 29.25 88.2775 31.0904C88.2775 32.9068 86.8915 34.1833 85.2877 34.1833ZM73.7004 25.9861C70.7713 25.9861 68.3897 28.131 68.3897 31.0904C68.3897 34.0258 70.7713 36.1932 73.7004 36.1932C76.6279 36.1932 79.011 34.0258 79.011 31.0904C79.011 28.131 76.6279 25.9861 73.7004 25.9861ZM73.7004 34.1833C72.095 34.1833 70.7106 32.9068 70.7106 31.0904C70.7106 29.25 72.095 27.996 73.7004 27.996C75.3042 27.996 76.6839 29.25 76.6839 31.0904C76.6839 32.9068 75.3042 34.1833 73.7004 34.1833ZM59.912 27.5506V29.7195H65.2833C65.1262 30.9314 64.7062 31.8224 64.0622 32.4434C63.2782 33.1933 62.0571 34.0258 59.912 34.0258C56.6064 34.0258 54.018 31.4534 54.018 28.266C54.018 25.0787 56.6064 22.5063 59.912 22.5063C61.6993 22.5063 62.9997 23.1797 63.9595 24.0527L65.5446 22.5243C64.2022 21.2883 62.4164 20.3388 59.912 20.3388C55.3791 20.3388 51.5695 23.8952 51.5695 28.266C51.5695 32.6368 55.3791 36.1932 59.912 36.1932C62.362 36.1932 64.2022 35.4192 65.6488 33.9673C67.1313 32.5378 67.5933 30.5279 67.5933 28.905C67.5933 28.401 67.5497 27.9375 67.4719 27.5506H59.912ZM116.295 29.232C115.857 28.0905 114.509 25.9861 111.762 25.9861C109.039 25.9861 106.773 28.0545 106.773 31.0904C106.773 33.9493 109.016 36.1932 112.023 36.1932C114.454 36.1932 115.857 34.7638 116.435 33.9313L114.63 32.7718C114.028 33.6208 113.208 34.1833 112.023 34.1833C110.845 34.1833 110.001 33.6628 109.459 32.6368L116.539 29.8125L116.295 29.232ZM109.077 30.9314C109.016 28.9635 110.662 27.9555 111.841 27.9555C112.765 27.9555 113.549 28.401 113.81 29.0385L109.077 30.9314ZM103.323 35.8827H105.65V20.8833H103.323V35.8827ZM99.5117 27.1231H99.4339C98.9112 26.5261 97.9141 25.9861 96.651 25.9861C94.0004 25.9861 91.5768 28.23 91.5768 31.1069C91.5768 33.9673 94.0004 36.1932 96.651 36.1932C97.9141 36.1932 98.9112 35.6487 99.4339 35.0337H99.5117V35.7657C99.5117 37.7171 98.4306 38.7656 96.6868 38.7656C95.265 38.7656 94.383 37.7756 94.019 36.9432L91.9953 37.7576C92.5786 39.1106 94.1233 40.7755 96.6868 40.7755C99.4152 40.7755 101.717 39.2276 101.717 35.4612V26.2966H99.5117V27.1231ZM96.8501 34.1833C95.2464 34.1833 93.9039 32.8888 93.9039 31.1069C93.9039 29.3085 95.2464 27.996 96.8501 27.996C98.4306 27.996 99.6766 29.3085 99.6766 31.1069C99.6766 32.8888 98.4306 34.1833 96.8501 34.1833ZM127.19 20.8833H121.624V35.8827H123.945V30.1994H127.19C129.767 30.1994 132.295 28.401 132.295 25.5406C132.295 22.6818 129.761 20.8833 127.19 20.8833ZM127.25 28.113H123.945V22.9697H127.25C128.983 22.9697 129.973 24.3572 129.973 25.5406C129.973 26.7016 128.983 28.113 127.25 28.113ZM141.597 25.9576C139.92 25.9576 138.177 26.6716 137.459 28.254L139.519 29.0865C139.962 28.254 140.777 27.984 141.639 27.984C142.843 27.984 144.064 28.6815 144.083 29.913V30.0705C143.663 29.8365 142.764 29.49 141.658 29.49C139.44 29.49 137.179 30.6674 137.179 32.8648C137.179 34.8748 138.996 36.1692 141.039 36.1692C142.601 36.1692 143.462 35.4897 144.004 34.6993H144.083V35.8587H146.325V30.1049C146.325 27.4456 144.265 25.9576 141.597 25.9576ZM141.317 34.1773C140.558 34.1773 139.5 33.8143 139.5 32.9068C139.5 31.7459 140.819 31.3004 141.961 31.3004C142.983 31.3004 143.462 31.5179 144.083 31.8044C143.901 33.1933 142.661 34.1773 141.317 34.1773ZM154.491 26.2861L151.823 32.7883H151.744L148.986 26.2861H146.483L150.627 35.3727L148.263 40.429H150.688L157.073 26.2861H154.491ZM133.571 35.8827H135.898V20.8833H133.571V35.8827Z" fill="white"/>
<path d="M13.6146 9.57896C13.249 9.94794 13.0375 10.5224 13.0375 11.2664V37.8031C13.0375 38.5471 13.249 39.1216 13.6146 39.4905L13.7048 39.5715L29.1266 24.7072V24.3563L13.7048 9.49197L13.6146 9.57896Z" fill="url(#paint0_linear_1433_1671)"/>
<path d="M35.0302 28.7349L29.8953 23.7775V23.4265L35.0364 18.4691L35.1515 18.5336L41.2399 21.874C42.9774 22.822 42.9774 24.3819 41.2399 25.3359L35.1515 28.6704L35.0302 28.7349Z" fill="url(#paint1_linear_1433_1671)"/>
<path d="M35.0097 29.2055L29.7535 24.1373L14.2416 39.096C14.8187 39.6809 15.7598 39.7514 16.8301 39.1665L35.0097 29.2055Z" fill="url(#paint2_linear_1433_1671)"/>
<path d="M35.0097 18.8502L16.8301 8.88914C15.7598 8.31017 14.8187 8.38066 14.2416 8.96564L29.7535 23.9185L35.0097 18.8502Z" fill="url(#paint3_linear_1433_1671)"/>
<defs>
<linearGradient id="paint0_linear_1433_1671" x1="27.7573" y1="38.0795" x2="7.63278" y2="17.2085" gradientUnits="userSpaceOnUse">
<stop stop-color="#00A0FF"/>
<stop offset="0.0066" stop-color="#00A1FF"/>
<stop offset="0.2601" stop-color="#00BEFF"/>
<stop offset="0.5122" stop-color="#00D2FF"/>
<stop offset="0.7604" stop-color="#00DFFF"/>
<stop offset="1" stop-color="#00E3FF"/>
</linearGradient>
<linearGradient id="paint1_linear_1433_1671" x1="43.5024" y1="23.6003" x2="13.391" y2="23.6003" gradientUnits="userSpaceOnUse">
<stop stop-color="#FFE000"/>
<stop offset="0.4087" stop-color="#FFBD00"/>
<stop offset="0.7754" stop-color="#FFA500"/>
<stop offset="1" stop-color="#FF9C00"/>
</linearGradient>
<linearGradient id="paint2_linear_1433_1671" x1="32.1515" y1="21.3821" x2="4.8611" y2="-6.92037" gradientUnits="userSpaceOnUse">
<stop stop-color="#FF3A44"/>
<stop offset="1" stop-color="#C31162"/>
</linearGradient>
<linearGradient id="paint3_linear_1433_1671" x1="10.337" y1="47.7059" x2="22.5235" y2="35.0677" gradientUnits="userSpaceOnUse">
<stop stop-color="#32A071"/>
<stop offset="0.0685" stop-color="#2DA771"/>
<stop offset="0.4762" stop-color="#15CF74"/>
<stop offset="0.8009" stop-color="#06E775"/>
<stop offset="1" stop-color="#00F076"/>
</linearGradient>
</defs>
</svg>
