<svg width="41" height="40" viewBox="0 0 41 40" fill="none" xmlns="http://www.w3.org/2000/svg">
<rect opacity="0.9" x="0.5" width="40" height="40" rx="20" fill="url(#paint0_linear_2_8081)"/>
<path d="M31.6055 29.4376C30.293 29.4063 29.0117 29.4063 27.6992 29.4376C27.418 29.4376 27.3555 29.3751 27.3555 29.0938C27.3555 26.7813 27.3555 24.4376 27.3555 22.1251C27.3555 21.5938 27.3242 21.0626 27.168 20.5626C26.6992 18.9376 24.8242 18.3438 23.4805 19.4376C22.7617 20.0001 22.4805 20.7813 22.4805 21.7188C22.4805 23.9063 22.4805 26.0938 22.4805 28.2813C22.4805 28.5626 22.4492 28.8438 22.4805 29.1563C22.5117 29.4063 22.3867 29.4688 22.168 29.4376C20.8242 29.4376 19.5117 29.4376 18.168 29.4376C17.918 29.4376 17.8555 29.3751 17.8555 29.1251C17.8867 27.1563 17.8867 25.1876 17.8867 23.1876C17.8867 20.7501 17.8867 18.3126 17.8555 15.9063C17.8555 15.6251 17.918 15.5626 18.168 15.5626C19.5117 15.5626 20.8242 15.5626 22.168 15.5626C22.418 15.5626 22.4805 15.6251 22.4805 15.8751C22.4805 16.3751 22.4805 16.8751 22.4805 17.4688C22.5742 17.3751 22.6055 17.3438 22.6367 17.3126C23.8555 15.5313 25.5742 15.0313 27.6055 15.3438C29.9492 15.7188 31.4492 17.3438 31.8242 19.8438C31.918 20.4376 31.9492 21.0313 31.9492 21.6251C31.9492 24.1251 31.9492 26.5938 31.9492 29.0938C31.9492 29.3438 31.8867 29.4376 31.6055 29.4376Z" fill="white"/>
<path d="M15.3555 22.5001C15.3555 24.6876 15.3555 26.8751 15.3555 29.0626C15.3555 29.3438 15.293 29.4376 15.0117 29.4376C13.6992 29.4063 12.3867 29.4376 11.0742 29.4376C10.8242 29.4376 10.7617 29.3751 10.7617 29.1251C10.7617 24.7188 10.7617 20.2813 10.7617 15.8751C10.7617 15.6563 10.8242 15.5626 11.0742 15.5626C12.418 15.5626 13.7617 15.5626 15.1055 15.5626C15.3867 15.5626 15.418 15.6563 15.418 15.9063C15.3555 18.0938 15.3555 20.2813 15.3555 22.5001Z" fill="white"/>
<path d="M15.5735 11.9375C15.261 13.1875 13.9798 13.9063 12.511 13.6563C10.9485 13.4063 10.0735 11.875 10.636 10.375C11.011 9.43752 11.9173 8.87502 13.0735 8.90627C14.8235 8.87502 15.9798 10.2813 15.5735 11.9375Z" fill="white"/>
<defs>
<linearGradient id="paint0_linear_2_8081" x1="0.5" y1="20" x2="58.5062" y2="21.1106" gradientUnits="userSpaceOnUse">
<stop stop-color="#904E95"/>
<stop offset="1" stop-color="#E96443"/>
</linearGradient>
</defs>
</svg>
