<svg width="14" height="20" viewBox="0 0 14 20" fill="none" xmlns="http://www.w3.org/2000/svg">
<path d="M12.0804 7.74068H11.5156V5.48162C11.5156 2.98988 9.48926 0.963501 6.99751 0.963501C4.50577 0.963501 2.4794 2.98988 2.4794 5.48162V7.74068H1.91463C0.980887 7.74068 0.220337 8.50047 0.220337 9.43497V17.3417C0.220337 18.2762 0.980887 19.036 1.91463 19.036H12.0804C13.0141 19.036 13.7747 18.2762 13.7747 17.3417V9.43497C13.7747 8.50047 13.0141 7.74068 12.0804 7.74068ZM3.98544 5.48162C3.98544 3.82046 5.33635 2.46954 6.99751 2.46954C8.65868 2.46954 10.0096 3.82046 10.0096 5.48162V7.74068H3.98544V5.48162ZM7.75053 13.5555V15.2709C7.75053 15.6865 7.41393 16.0239 6.99751 16.0239C6.58109 16.0239 6.24449 15.6865 6.24449 15.2709V13.5555C5.79645 13.2942 5.49147 12.8138 5.49147 12.2588C5.49147 11.4282 6.16693 10.7528 6.99751 10.7528C7.82809 10.7528 8.50355 11.4282 8.50355 12.2588C8.50355 12.8138 8.19858 13.2942 7.75053 13.5555Z" fill="url(#paint0_linear_1422_901)"/>
<defs>
<linearGradient id="paint0_linear_1422_901" x1="1.0079" y1="8.95959" x2="11.8552" y2="9.05878" gradientUnits="userSpaceOnUse">
<stop stop-color="#ECA38A"/>
<stop offset="1" stop-color="#E986A3"/>
</linearGradient>
</defs>
</svg>
