<svg width="164" height="42" viewBox="0 0 164 42" fill="none" xmlns="http://www.w3.org/2000/svg">
<path d="M32.9686 23.5905C32.3478 23.2358 31.5941 23.3688 31.062 23.8566C28.5347 26.4282 24.9876 27.6697 21.3962 27.2706C16.0756 26.6499 11.7747 22.3491 11.1983 17.0728C10.7993 13.437 12.0408 9.93425 14.6124 7.40695C15.1445 6.91923 15.2331 6.12113 14.8784 5.50039C14.5237 4.87965 13.8143 4.56928 13.1492 4.74664C5.07959 6.60886 -0.418392 14.0134 0.0249943 22.2604C0.46838 30.8621 7.56255 38.0006 16.2086 38.444C16.5189 38.444 16.8293 38.4883 17.1397 38.4883C25.032 38.4883 31.9488 33.079 33.811 25.3641C33.8997 24.6103 33.5893 23.9452 32.9686 23.5905Z" fill="url(#paint0_linear_1356_18987)"/>
<path d="M21.8706 10.5902L24.6435 10.9278L19.6067 16.3445C19.0969 16.8631 18.9565 17.65 19.1895 18.3037C19.4173 19.0014 20.0292 19.4779 20.7775 19.569L27.2915 20.3621C28.3478 20.4907 29.2859 19.7562 29.4145 18.6999C29.5431 17.6436 28.8086 16.7055 27.7523 16.5769L24.9795 16.2393L30.0162 10.8226C30.526 10.304 30.6665 9.51714 30.4334 8.86344C30.2057 8.16573 29.5937 7.68922 28.8454 7.59813L22.3314 6.80507C21.2751 6.67646 20.337 7.41091 20.2084 8.46724C20.0798 9.52356 20.8143 10.4616 21.8706 10.5902Z" fill="url(#paint1_linear_1356_18987)"/>
<path d="M40.1912 11.2209L38.257 10.9167L41.9176 7.24508C42.2874 6.89423 42.405 6.34642 42.2577 5.88279C42.0797 5.41433 41.6675 5.03488 41.1762 4.95762L36.6016 4.23818C35.8647 4.1223 35.1848 4.6446 35.0689 5.38145C34.953 6.11831 35.4446 6.79339 36.1815 6.90928L38.1157 7.21347L34.4551 10.8851C34.0853 11.2359 33.9677 11.7837 34.115 12.2474C34.2575 12.7417 34.6746 13.0905 35.1965 13.1725L39.7404 13.8872C40.4773 14.003 41.1524 13.5114 41.2682 12.7746C41.4148 12.0426 40.9281 11.3368 40.1912 11.2209Z" fill="url(#paint2_linear_1356_18987)"/>
<path d="M54.6758 16.8126C54.2886 17.2209 53.6145 17.1494 53.1186 16.8835C53.0253 16.8335 52.9273 16.7888 52.8246 16.7495C52.3766 16.5595 51.9014 16.4644 51.399 16.4644C51.1003 16.4644 50.8084 16.4984 50.5233 16.5662C50.2517 16.6341 50.0006 16.7428 49.7698 16.8921C49.5525 17.0414 49.376 17.2383 49.2402 17.4827C49.1045 17.7135 49.0366 17.9919 49.0366 18.3177C49.0366 18.8065 49.2063 19.1799 49.5457 19.4378C49.8852 19.6958 50.3061 19.9198 50.8084 20.1099C51.3108 20.3 51.8606 20.4833 52.458 20.6598C53.0554 20.8363 53.6053 21.0807 54.1077 21.3929C54.61 21.7052 55.0309 22.1193 55.3704 22.6353C55.7098 23.1512 55.8795 23.8368 55.8795 24.6922C55.8795 25.4661 55.7369 26.145 55.4518 26.7288C55.1667 27.299 54.7798 27.7742 54.291 28.1544C53.8158 28.5346 53.2591 28.8197 52.621 29.0098C51.9828 29.1998 51.3108 29.2949 50.6048 29.2949C49.7087 29.2949 48.8465 29.1455 48.0183 28.8468C47.4431 28.6394 46.9235 28.3337 46.4597 27.9298C46.1082 27.6238 46.1399 27.088 46.4747 26.7638L47.0461 26.2103C47.4451 25.824 48.0968 25.9085 48.5317 26.2539C48.6877 26.3778 48.856 26.4886 49.0366 26.5862C49.5525 26.8442 50.0956 26.9732 50.6659 26.9732C50.9646 26.9732 51.2633 26.9325 51.5619 26.851C51.8606 26.7695 52.1322 26.6473 52.3766 26.4844C52.621 26.3215 52.8178 26.1178 52.9672 25.8734C53.1165 25.6155 53.1912 25.3236 53.1912 24.9977C53.1912 24.4682 53.0215 24.0609 52.6821 23.7758C52.3426 23.4906 51.9217 23.253 51.4194 23.0629C50.917 22.8593 50.3672 22.6692 49.7698 22.4927C49.1724 22.3162 48.6225 22.0786 48.1201 21.7799C47.6178 21.4676 47.1969 21.0603 46.8574 20.558C46.518 20.042 46.3483 19.3564 46.3483 18.501C46.3483 17.7543 46.4976 17.1093 46.7963 16.5662C47.1086 16.0232 47.5091 15.5751 47.9979 15.2221C48.5003 14.8555 49.0705 14.584 49.7087 14.4075C50.3468 14.231 50.9985 14.1427 51.6638 14.1427C52.4241 14.1427 53.1573 14.2581 53.8633 14.4889C54.3017 14.6295 54.7123 14.8256 55.0953 15.0771C55.5071 15.3475 55.5213 15.9212 55.1822 16.2787L54.6758 16.8126Z" fill="white"/>
<path d="M58.1915 14.4172C58.1915 13.9282 58.5879 13.5317 59.077 13.5317H59.7499C60.239 13.5317 60.6354 13.9282 60.6354 14.4172V28.0428C60.6354 28.5319 60.239 28.9283 59.7499 28.9283H59.077C58.5879 28.9283 58.1915 28.5319 58.1915 28.0428V14.4172Z" fill="white"/>
<path d="M66.2084 24.8959C65.6807 24.8959 65.2504 25.3701 65.4802 25.8452C65.624 26.1425 65.8221 26.3963 66.0745 26.6066C66.5633 27.0139 67.1539 27.2176 67.8463 27.2176C68.4573 27.2176 68.9664 27.0954 69.3738 26.851C69.55 26.743 69.7167 26.6243 69.8739 26.4948C70.2406 26.1928 70.7729 26.1201 71.1519 26.4065L71.4955 26.6662C71.8945 26.9678 71.9703 27.5476 71.6007 27.8846C71.1993 28.2506 70.7693 28.5306 70.3106 28.7246C69.6046 29.0233 68.8646 29.1727 68.0907 29.1727C67.3575 29.1727 66.6651 29.0505 66.0134 28.8061C65.3617 28.5617 64.7982 28.2155 64.323 27.7675C63.8478 27.3194 63.4677 26.7831 63.1826 26.1586C62.911 25.5204 62.7752 24.8144 62.7752 24.0405C62.7752 23.2666 62.911 22.5674 63.1826 21.9428C63.4677 21.3047 63.8478 20.7616 64.323 20.3136C64.7982 19.8655 65.3617 19.5193 66.0134 19.2749C66.6651 19.0305 67.3575 18.9083 68.0907 18.9083C68.7696 18.9083 69.3873 19.0305 69.944 19.2749C70.5143 19.5057 70.9962 19.8451 71.39 20.2932C71.7973 20.7412 72.1096 21.2979 72.3268 21.9632C72.5576 22.6149 72.673 23.3684 72.673 24.2238C72.673 24.595 72.3721 24.8959 72.001 24.8959H66.2084ZM69.3268 23.0629C69.8224 23.0629 70.2456 22.6439 70.0796 22.177C69.9679 21.8625 69.7937 21.5944 69.5571 21.3726C69.1226 20.9517 68.5184 20.7412 67.7445 20.7412C67.0113 20.7412 66.4275 20.9517 65.993 21.3726C65.7873 21.5783 65.6205 21.8181 65.4926 22.0919C65.2659 22.5775 65.6958 23.0629 66.2318 23.0629H69.3268Z" fill="white"/>
<path d="M77.7258 24.8959C77.198 24.8959 76.7677 25.3701 76.9975 25.8452C77.1413 26.1425 77.3394 26.3963 77.5918 26.6066C78.0806 27.0139 78.6712 27.2176 79.3637 27.2176C79.9746 27.2176 80.4838 27.0954 80.8911 26.851C81.0673 26.743 81.234 26.6243 81.3912 26.4948C81.758 26.1928 82.2902 26.1201 82.6692 26.4065L83.0128 26.6662C83.4119 26.9678 83.4876 27.5476 83.118 27.8846C82.7166 28.2506 82.2866 28.5306 81.8279 28.7246C81.1219 29.0233 80.382 29.1727 79.6081 29.1727C78.8749 29.1727 78.1825 29.0505 77.5308 28.8061C76.879 28.5617 76.3156 28.2155 75.8404 27.7675C75.3652 27.3194 74.985 26.7831 74.6999 26.1586C74.4284 25.5204 74.2926 24.8144 74.2926 24.0405C74.2926 23.2666 74.4284 22.5674 74.6999 21.9428C74.985 21.3047 75.3652 20.7616 75.8404 20.3136C76.3156 19.8655 76.879 19.5193 77.5308 19.2749C78.1825 19.0305 78.8749 18.9083 79.6081 18.9083C80.2869 18.9083 80.9047 19.0305 81.4614 19.2749C82.0316 19.5057 82.5136 19.8451 82.9073 20.2932C83.3146 20.7412 83.6269 21.2979 83.8442 21.9632C84.075 22.6149 84.1904 23.3684 84.1904 24.2238C84.1904 24.595 83.8895 24.8959 83.5183 24.8959H77.7258ZM80.8441 23.0629C81.3397 23.0629 81.763 22.6439 81.597 22.177C81.4852 21.8625 81.311 21.5944 81.0744 21.3726C80.6399 20.9517 80.0357 20.7412 79.2618 20.7412C78.5287 20.7412 77.9449 20.9517 77.5104 21.3726C77.3047 21.5783 77.1379 21.8181 77.01 22.0919C76.7832 22.5775 77.2132 23.0629 77.7491 23.0629H80.8441Z" fill="white"/>
<path d="M86.2987 20.0382C86.2987 19.5491 86.6951 19.1527 87.1842 19.1527H87.8872C88.2922 19.1527 88.6204 19.481 88.6204 19.8859V20.5931C88.6204 20.6074 88.632 20.619 88.6464 20.619C88.6555 20.619 88.664 20.6142 88.6687 20.6063C89.0209 20.0155 89.4936 19.5852 90.0868 19.3156C90.6842 19.0441 91.3291 18.9083 92.0215 18.9083C92.7683 18.9083 93.4403 19.0441 94.0377 19.3156C94.6351 19.5736 95.1443 19.9334 95.5652 20.395C95.9861 20.8566 96.3051 21.3997 96.5224 22.0243C96.7396 22.6488 96.8482 23.3209 96.8482 24.0405C96.8482 24.7601 96.7328 25.4322 96.502 26.0567C96.2712 26.6813 95.9453 27.2244 95.5244 27.686C95.1171 28.1476 94.6216 28.5142 94.0377 28.7857C93.4539 29.0437 92.8158 29.1727 92.1233 29.1727C91.6617 29.1727 91.2544 29.1252 90.9014 29.0301C90.5484 28.9351 90.2361 28.8129 89.9646 28.6636C89.693 28.5142 89.4622 28.3581 89.2721 28.1951C89.0883 28.0245 88.9363 27.8602 88.816 27.7022C88.8082 27.692 88.7962 27.686 88.7833 27.686C88.7608 27.686 88.7426 27.7042 88.7426 27.7267V32.6862C88.7426 33.1753 88.3462 33.5717 87.8571 33.5717H87.1842C86.6951 33.5717 86.2987 33.1753 86.2987 32.6862V20.0382ZM94.4043 24.0405C94.4043 23.6603 94.3364 23.2938 94.2007 22.9408C94.0785 22.5877 93.8884 22.2755 93.6304 22.0039C93.386 21.7324 93.0873 21.5151 92.7343 21.3522C92.3813 21.1893 91.9808 21.1078 91.5327 21.1078C91.0847 21.1078 90.6842 21.1893 90.3311 21.3522C89.9781 21.5151 89.6727 21.7324 89.4147 22.0039C89.1703 22.2755 88.9802 22.5877 88.8444 22.9408C88.7222 23.2938 88.6611 23.6603 88.6611 24.0405C88.6611 24.4207 88.7222 24.7873 88.8444 25.1403C88.9802 25.4933 89.1703 25.8055 89.4147 26.0771C89.6727 26.3486 89.9781 26.5659 90.3311 26.7288C90.6842 26.8917 91.0847 26.9732 91.5327 26.9732C91.9808 26.9732 92.3813 26.8917 92.7343 26.7288C93.0873 26.5659 93.386 26.3486 93.6304 26.0771C93.8884 25.8055 94.0785 25.4933 94.2007 25.1403C94.3364 24.7873 94.4043 24.4207 94.4043 24.0405Z" fill="white"/>
<path d="M103.315 15.3948C103.315 14.9057 103.711 14.5093 104.2 14.5093H104.995C105.484 14.5093 105.881 14.9057 105.881 15.3948V25.7211C105.881 26.2102 106.277 26.6066 106.766 26.6066H111.125C111.614 26.6066 112.011 27.003 112.011 27.4921V28.0428C112.011 28.5319 111.614 28.9283 111.125 28.9283H104.2C103.711 28.9283 103.315 28.5319 103.315 28.0428V15.3948Z" fill="white"/>
<path d="M112.607 24.0405C112.607 23.2666 112.743 22.5674 113.014 21.9428C113.299 21.3047 113.68 20.7616 114.155 20.3136C114.63 19.8655 115.193 19.5193 115.845 19.2749C116.497 19.0305 117.189 18.9083 117.923 18.9083C118.656 18.9083 119.348 19.0305 120 19.2749C120.652 19.5193 121.215 19.8655 121.69 20.3136C122.165 20.7616 122.539 21.3047 122.81 21.9428C123.095 22.5674 123.238 23.2666 123.238 24.0405C123.238 24.8144 123.095 25.5204 122.81 26.1586C122.539 26.7831 122.165 27.3194 121.69 27.7675C121.215 28.2155 120.652 28.5617 120 28.8061C119.348 29.0505 118.656 29.1727 117.923 29.1727C117.189 29.1727 116.497 29.0505 115.845 28.8061C115.193 28.5617 114.63 28.2155 114.155 27.7675C113.68 27.3194 113.299 26.7831 113.014 26.1586C112.743 25.5204 112.607 24.8144 112.607 24.0405ZM115.051 24.0405C115.051 24.4207 115.112 24.7873 115.234 25.1403C115.37 25.4933 115.56 25.8055 115.804 26.0771C116.062 26.3486 116.368 26.5659 116.721 26.7288C117.074 26.8917 117.474 26.9732 117.923 26.9732C118.371 26.9732 118.771 26.8917 119.124 26.7288C119.477 26.5659 119.776 26.3486 120.02 26.0771C120.278 25.8055 120.468 25.4933 120.59 25.1403C120.726 24.7873 120.794 24.4207 120.794 24.0405C120.794 23.6603 120.726 23.2938 120.59 22.9408C120.468 22.5877 120.278 22.2755 120.02 22.0039C119.776 21.7324 119.477 21.5151 119.124 21.3522C118.771 21.1893 118.371 21.1078 117.923 21.1078C117.474 21.1078 117.074 21.1893 116.721 21.3522C116.368 21.5151 116.062 21.7324 115.804 22.0039C115.56 22.2755 115.37 22.5877 115.234 22.9408C115.112 23.2938 115.051 23.6603 115.051 24.0405Z" fill="white"/>
<path d="M124.174 20.3729C123.936 19.7905 124.364 19.1527 124.993 19.1527H125.733C126.101 19.1527 126.43 19.3796 126.561 19.723L128.943 25.9766C128.947 25.988 128.958 25.9956 128.971 25.9956C128.983 25.9956 128.994 25.9881 128.998 25.9766L131.4 19.7208C131.531 19.3786 131.86 19.1527 132.227 19.1527H132.823C133.447 19.1527 133.875 19.7816 133.647 20.3626L130.495 28.3672C130.362 28.7058 130.035 28.9283 129.671 28.9283H128.262C127.902 28.9283 127.578 28.7106 127.442 28.3776L124.174 20.3729Z" fill="white"/>
<path d="M138.071 24.8959C137.543 24.8959 137.113 25.3701 137.342 25.8452C137.486 26.1425 137.684 26.3963 137.937 26.6066C138.426 27.0139 139.016 27.2176 139.709 27.2176C140.32 27.2176 140.829 27.0954 141.236 26.851C141.412 26.743 141.579 26.6243 141.736 26.4948C142.103 26.1928 142.635 26.1201 143.014 26.4065L143.358 26.6662C143.757 26.9678 143.833 27.5476 143.463 27.8846C143.062 28.2506 142.632 28.5306 142.173 28.7246C141.467 29.0233 140.727 29.1727 139.953 29.1727C139.22 29.1727 138.527 29.0505 137.876 28.8061C137.224 28.5617 136.661 28.2155 136.185 27.7675C135.71 27.3194 135.33 26.7831 135.045 26.1586C134.773 25.5204 134.638 24.8144 134.638 24.0405C134.638 23.2666 134.773 22.5674 135.045 21.9428C135.33 21.3047 135.71 20.7616 136.185 20.3136C136.661 19.8655 137.224 19.5193 137.876 19.2749C138.527 19.0305 139.22 18.9083 139.953 18.9083C140.632 18.9083 141.25 19.0305 141.806 19.2749C142.377 19.5057 142.859 19.8451 143.252 20.2932C143.66 20.7412 143.972 21.2979 144.189 21.9632C144.42 22.6149 144.535 23.3684 144.535 24.2238C144.535 24.595 144.234 24.8959 143.863 24.8959H138.071ZM141.189 23.0629C141.685 23.0629 142.108 22.6439 141.942 22.177C141.83 21.8625 141.656 21.5944 141.419 21.3726C140.985 20.9517 140.381 20.7412 139.607 20.7412C138.874 20.7412 138.29 20.9517 137.855 21.3726C137.65 21.5783 137.483 21.8181 137.355 22.0919C137.128 22.5775 137.558 23.0629 138.094 23.0629H141.189Z" fill="white"/>
<path d="M146.644 20.0382C146.644 19.5491 147.04 19.1527 147.529 19.1527H148.314C148.741 19.1527 149.088 19.4992 149.088 19.9266V20.6755C149.088 20.6893 149.099 20.7005 149.113 20.7005C149.122 20.7005 149.131 20.6949 149.135 20.6863C149.406 20.1229 149.791 19.6864 150.289 19.3767C150.791 19.0645 151.369 18.9083 152.02 18.9083C152.17 18.9083 152.312 18.9219 152.448 18.949C152.715 18.9976 152.896 19.2391 152.896 19.5105V20.7898C152.896 21.1045 152.597 21.3327 152.285 21.2911C152.095 21.2504 151.905 21.23 151.715 21.23C151.145 21.23 150.683 21.3386 150.33 21.5559C149.99 21.7595 149.726 21.9971 149.536 22.2687C149.359 22.5402 149.237 22.8118 149.169 23.0833C149.115 23.3549 149.088 23.5585 149.088 23.6943V28.0428C149.088 28.5319 148.691 28.9283 148.202 28.9283H147.529C147.04 28.9283 146.644 28.5319 146.644 28.0428V20.0382Z" fill="white"/>
<path d="M54.6758 16.8126C54.2886 17.2209 53.6145 17.1494 53.1186 16.8835C53.0253 16.8335 52.9273 16.7888 52.8246 16.7495C52.3766 16.5595 51.9014 16.4644 51.399 16.4644C51.1003 16.4644 50.8084 16.4984 50.5233 16.5662C50.2517 16.6341 50.0006 16.7428 49.7698 16.8921C49.5525 17.0414 49.376 17.2383 49.2402 17.4827C49.1045 17.7135 49.0366 17.9919 49.0366 18.3177C49.0366 18.8065 49.2063 19.1799 49.5457 19.4378C49.8852 19.6958 50.3061 19.9198 50.8084 20.1099C51.3108 20.3 51.8606 20.4833 52.458 20.6598C53.0554 20.8363 53.6053 21.0807 54.1077 21.3929C54.61 21.7052 55.0309 22.1193 55.3704 22.6353C55.7098 23.1512 55.8795 23.8368 55.8795 24.6922C55.8795 25.4661 55.7369 26.145 55.4518 26.7288C55.1667 27.299 54.7798 27.7742 54.291 28.1544C53.8158 28.5346 53.2591 28.8197 52.621 29.0098C51.9828 29.1998 51.3108 29.2949 50.6048 29.2949C49.7087 29.2949 48.8465 29.1455 48.0183 28.8468C47.4431 28.6394 46.9235 28.3337 46.4597 27.9298C46.1082 27.6238 46.1399 27.088 46.4747 26.7638L47.0461 26.2103C47.4451 25.824 48.0968 25.9085 48.5317 26.2539C48.6877 26.3778 48.856 26.4886 49.0366 26.5862C49.5525 26.8442 50.0956 26.9732 50.6659 26.9732C50.9646 26.9732 51.2633 26.9325 51.5619 26.851C51.8606 26.7695 52.1322 26.6473 52.3766 26.4844C52.621 26.3215 52.8178 26.1178 52.9672 25.8734C53.1165 25.6155 53.1912 25.3236 53.1912 24.9977C53.1912 24.4682 53.0215 24.0609 52.6821 23.7758C52.3426 23.4906 51.9217 23.253 51.4194 23.0629C50.917 22.8593 50.3672 22.6692 49.7698 22.4927C49.1724 22.3162 48.6225 22.0786 48.1201 21.7799C47.6178 21.4676 47.1969 21.0603 46.8574 20.558C46.518 20.042 46.3483 19.3564 46.3483 18.501C46.3483 17.7543 46.4976 17.1093 46.7963 16.5662C47.1086 16.0232 47.5091 15.5751 47.9979 15.2221C48.5003 14.8555 49.0705 14.584 49.7087 14.4075C50.3468 14.231 50.9985 14.1427 51.6638 14.1427C52.4241 14.1427 53.1573 14.2581 53.8633 14.4889C54.3017 14.6295 54.7123 14.8256 55.0953 15.0771C55.5071 15.3475 55.5213 15.9212 55.1822 16.2787L54.6758 16.8126Z" stroke="white" stroke-width="0.341667"/>
<path d="M58.1915 14.4172C58.1915 13.9282 58.5879 13.5317 59.077 13.5317H59.7499C60.239 13.5317 60.6354 13.9282 60.6354 14.4172V28.0428C60.6354 28.5319 60.239 28.9283 59.7499 28.9283H59.077C58.5879 28.9283 58.1915 28.5319 58.1915 28.0428V14.4172Z" stroke="white" stroke-width="0.341667"/>
<path d="M66.2084 24.8959C65.6807 24.8959 65.2504 25.3701 65.4802 25.8452C65.624 26.1425 65.8221 26.3963 66.0745 26.6066C66.5633 27.0139 67.1539 27.2176 67.8463 27.2176C68.4573 27.2176 68.9664 27.0954 69.3738 26.851C69.55 26.743 69.7167 26.6243 69.8739 26.4948C70.2406 26.1928 70.7729 26.1201 71.1519 26.4065L71.4955 26.6662C71.8945 26.9678 71.9703 27.5476 71.6007 27.8846C71.1993 28.2506 70.7693 28.5306 70.3106 28.7246C69.6046 29.0233 68.8646 29.1727 68.0907 29.1727C67.3575 29.1727 66.6651 29.0505 66.0134 28.8061C65.3617 28.5617 64.7982 28.2155 64.323 27.7675C63.8478 27.3194 63.4677 26.7831 63.1826 26.1586C62.911 25.5204 62.7752 24.8144 62.7752 24.0405C62.7752 23.2666 62.911 22.5674 63.1826 21.9428C63.4677 21.3047 63.8478 20.7616 64.323 20.3136C64.7982 19.8655 65.3617 19.5193 66.0134 19.2749C66.6651 19.0305 67.3575 18.9083 68.0907 18.9083C68.7696 18.9083 69.3873 19.0305 69.944 19.2749C70.5143 19.5057 70.9962 19.8451 71.39 20.2932C71.7973 20.7412 72.1096 21.2979 72.3268 21.9632C72.5576 22.6149 72.673 23.3684 72.673 24.2238C72.673 24.595 72.3721 24.8959 72.001 24.8959H66.2084ZM69.3268 23.0629C69.8224 23.0629 70.2456 22.6439 70.0796 22.177C69.9679 21.8625 69.7937 21.5944 69.5571 21.3726C69.1226 20.9517 68.5184 20.7412 67.7445 20.7412C67.0113 20.7412 66.4275 20.9517 65.993 21.3726C65.7873 21.5783 65.6205 21.8181 65.4926 22.0919C65.2659 22.5775 65.6958 23.0629 66.2318 23.0629H69.3268Z" stroke="white" stroke-width="0.341667"/>
<path d="M77.7258 24.8959C77.198 24.8959 76.7677 25.3701 76.9975 25.8452C77.1413 26.1425 77.3394 26.3963 77.5918 26.6066C78.0806 27.0139 78.6712 27.2176 79.3637 27.2176C79.9746 27.2176 80.4838 27.0954 80.8911 26.851C81.0673 26.743 81.234 26.6243 81.3912 26.4948C81.758 26.1928 82.2902 26.1201 82.6692 26.4065L83.0128 26.6662C83.4119 26.9678 83.4876 27.5476 83.118 27.8846C82.7166 28.2506 82.2866 28.5306 81.8279 28.7246C81.1219 29.0233 80.382 29.1727 79.6081 29.1727C78.8749 29.1727 78.1825 29.0505 77.5308 28.8061C76.879 28.5617 76.3156 28.2155 75.8404 27.7675C75.3652 27.3194 74.985 26.7831 74.6999 26.1586C74.4284 25.5204 74.2926 24.8144 74.2926 24.0405C74.2926 23.2666 74.4284 22.5674 74.6999 21.9428C74.985 21.3047 75.3652 20.7616 75.8404 20.3136C76.3156 19.8655 76.879 19.5193 77.5308 19.2749C78.1825 19.0305 78.8749 18.9083 79.6081 18.9083C80.2869 18.9083 80.9047 19.0305 81.4614 19.2749C82.0316 19.5057 82.5136 19.8451 82.9073 20.2932C83.3146 20.7412 83.6269 21.2979 83.8442 21.9632C84.075 22.6149 84.1904 23.3684 84.1904 24.2238C84.1904 24.595 83.8895 24.8959 83.5183 24.8959H77.7258ZM80.8441 23.0629C81.3397 23.0629 81.763 22.6439 81.597 22.177C81.4852 21.8625 81.311 21.5944 81.0744 21.3726C80.6399 20.9517 80.0357 20.7412 79.2618 20.7412C78.5287 20.7412 77.9449 20.9517 77.5104 21.3726C77.3047 21.5783 77.1379 21.8181 77.01 22.0919C76.7832 22.5775 77.2132 23.0629 77.7491 23.0629H80.8441Z" stroke="white" stroke-width="0.341667"/>
<path d="M86.2987 20.0382C86.2987 19.5491 86.6951 19.1527 87.1842 19.1527H87.8872C88.2922 19.1527 88.6204 19.481 88.6204 19.8859V20.5931C88.6204 20.6074 88.632 20.619 88.6464 20.619C88.6555 20.619 88.664 20.6142 88.6687 20.6063C89.0209 20.0155 89.4936 19.5852 90.0868 19.3156C90.6842 19.0441 91.3291 18.9083 92.0215 18.9083C92.7683 18.9083 93.4403 19.0441 94.0377 19.3156C94.6351 19.5736 95.1443 19.9334 95.5652 20.395C95.9861 20.8566 96.3051 21.3997 96.5224 22.0243C96.7396 22.6488 96.8482 23.3209 96.8482 24.0405C96.8482 24.7601 96.7328 25.4322 96.502 26.0567C96.2712 26.6813 95.9453 27.2244 95.5244 27.686C95.1171 28.1476 94.6216 28.5142 94.0377 28.7857C93.4539 29.0437 92.8158 29.1727 92.1233 29.1727C91.6617 29.1727 91.2544 29.1252 90.9014 29.0301C90.5484 28.9351 90.2361 28.8129 89.9646 28.6636C89.693 28.5142 89.4622 28.3581 89.2721 28.1951C89.0883 28.0245 88.9363 27.8602 88.816 27.7022C88.8082 27.692 88.7962 27.686 88.7833 27.686C88.7608 27.686 88.7426 27.7042 88.7426 27.7267V32.6862C88.7426 33.1753 88.3462 33.5717 87.8571 33.5717H87.1842C86.6951 33.5717 86.2987 33.1753 86.2987 32.6862V20.0382ZM94.4043 24.0405C94.4043 23.6603 94.3364 23.2938 94.2007 22.9408C94.0785 22.5877 93.8884 22.2755 93.6304 22.0039C93.386 21.7324 93.0873 21.5151 92.7343 21.3522C92.3813 21.1893 91.9808 21.1078 91.5327 21.1078C91.0847 21.1078 90.6842 21.1893 90.3311 21.3522C89.9781 21.5151 89.6727 21.7324 89.4147 22.0039C89.1703 22.2755 88.9802 22.5877 88.8444 22.9408C88.7222 23.2938 88.6611 23.6603 88.6611 24.0405C88.6611 24.4207 88.7222 24.7873 88.8444 25.1403C88.9802 25.4933 89.1703 25.8055 89.4147 26.0771C89.6727 26.3486 89.9781 26.5659 90.3311 26.7288C90.6842 26.8917 91.0847 26.9732 91.5327 26.9732C91.9808 26.9732 92.3813 26.8917 92.7343 26.7288C93.0873 26.5659 93.386 26.3486 93.6304 26.0771C93.8884 25.8055 94.0785 25.4933 94.2007 25.1403C94.3364 24.7873 94.4043 24.4207 94.4043 24.0405Z" stroke="white" stroke-width="0.341667"/>
<path d="M103.315 15.3948C103.315 14.9057 103.711 14.5093 104.2 14.5093H104.995C105.484 14.5093 105.881 14.9057 105.881 15.3948V25.7211C105.881 26.2102 106.277 26.6066 106.766 26.6066H111.125C111.614 26.6066 112.011 27.003 112.011 27.4921V28.0428C112.011 28.5319 111.614 28.9283 111.125 28.9283H104.2C103.711 28.9283 103.315 28.5319 103.315 28.0428V15.3948Z" stroke="white" stroke-width="0.341667"/>
<path d="M112.607 24.0405C112.607 23.2666 112.743 22.5674 113.014 21.9428C113.299 21.3047 113.68 20.7616 114.155 20.3136C114.63 19.8655 115.193 19.5193 115.845 19.2749C116.497 19.0305 117.189 18.9083 117.923 18.9083C118.656 18.9083 119.348 19.0305 120 19.2749C120.652 19.5193 121.215 19.8655 121.69 20.3136C122.165 20.7616 122.539 21.3047 122.81 21.9428C123.095 22.5674 123.238 23.2666 123.238 24.0405C123.238 24.8144 123.095 25.5204 122.81 26.1586C122.539 26.7831 122.165 27.3194 121.69 27.7675C121.215 28.2155 120.652 28.5617 120 28.8061C119.348 29.0505 118.656 29.1727 117.923 29.1727C117.189 29.1727 116.497 29.0505 115.845 28.8061C115.193 28.5617 114.63 28.2155 114.155 27.7675C113.68 27.3194 113.299 26.7831 113.014 26.1586C112.743 25.5204 112.607 24.8144 112.607 24.0405ZM115.051 24.0405C115.051 24.4207 115.112 24.7873 115.234 25.1403C115.37 25.4933 115.56 25.8055 115.804 26.0771C116.062 26.3486 116.368 26.5659 116.721 26.7288C117.074 26.8917 117.474 26.9732 117.923 26.9732C118.371 26.9732 118.771 26.8917 119.124 26.7288C119.477 26.5659 119.776 26.3486 120.02 26.0771C120.278 25.8055 120.468 25.4933 120.59 25.1403C120.726 24.7873 120.794 24.4207 120.794 24.0405C120.794 23.6603 120.726 23.2938 120.59 22.9408C120.468 22.5877 120.278 22.2755 120.02 22.0039C119.776 21.7324 119.477 21.5151 119.124 21.3522C118.771 21.1893 118.371 21.1078 117.923 21.1078C117.474 21.1078 117.074 21.1893 116.721 21.3522C116.368 21.5151 116.062 21.7324 115.804 22.0039C115.56 22.2755 115.37 22.5877 115.234 22.9408C115.112 23.2938 115.051 23.6603 115.051 24.0405Z" stroke="white" stroke-width="0.341667"/>
<path d="M124.174 20.3729C123.936 19.7905 124.364 19.1527 124.993 19.1527H125.733C126.101 19.1527 126.43 19.3796 126.561 19.723L128.943 25.9766C128.947 25.988 128.958 25.9956 128.971 25.9956C128.983 25.9956 128.994 25.9881 128.998 25.9766L131.4 19.7208C131.531 19.3786 131.86 19.1527 132.227 19.1527H132.823C133.447 19.1527 133.875 19.7816 133.647 20.3626L130.495 28.3672C130.362 28.7058 130.035 28.9283 129.671 28.9283H128.262C127.902 28.9283 127.578 28.7106 127.442 28.3776L124.174 20.3729Z" stroke="white" stroke-width="0.341667"/>
<path d="M138.071 24.8959C137.543 24.8959 137.113 25.3701 137.342 25.8452C137.486 26.1425 137.684 26.3963 137.937 26.6066C138.426 27.0139 139.016 27.2176 139.709 27.2176C140.32 27.2176 140.829 27.0954 141.236 26.851C141.412 26.743 141.579 26.6243 141.736 26.4948C142.103 26.1928 142.635 26.1201 143.014 26.4065L143.358 26.6662C143.757 26.9678 143.833 27.5476 143.463 27.8846C143.062 28.2506 142.632 28.5306 142.173 28.7246C141.467 29.0233 140.727 29.1727 139.953 29.1727C139.22 29.1727 138.527 29.0505 137.876 28.8061C137.224 28.5617 136.661 28.2155 136.185 27.7675C135.71 27.3194 135.33 26.7831 135.045 26.1586C134.773 25.5204 134.638 24.8144 134.638 24.0405C134.638 23.2666 134.773 22.5674 135.045 21.9428C135.33 21.3047 135.71 20.7616 136.185 20.3136C136.661 19.8655 137.224 19.5193 137.876 19.2749C138.527 19.0305 139.22 18.9083 139.953 18.9083C140.632 18.9083 141.25 19.0305 141.806 19.2749C142.377 19.5057 142.859 19.8451 143.252 20.2932C143.66 20.7412 143.972 21.2979 144.189 21.9632C144.42 22.6149 144.535 23.3684 144.535 24.2238C144.535 24.595 144.234 24.8959 143.863 24.8959H138.071ZM141.189 23.0629C141.685 23.0629 142.108 22.6439 141.942 22.177C141.83 21.8625 141.656 21.5944 141.419 21.3726C140.985 20.9517 140.381 20.7412 139.607 20.7412C138.874 20.7412 138.29 20.9517 137.855 21.3726C137.65 21.5783 137.483 21.8181 137.355 22.0919C137.128 22.5775 137.558 23.0629 138.094 23.0629H141.189Z" stroke="white" stroke-width="0.341667"/>
<path d="M146.644 20.0382C146.644 19.5491 147.04 19.1527 147.529 19.1527H148.314C148.741 19.1527 149.088 19.4992 149.088 19.9266V20.6755C149.088 20.6893 149.099 20.7005 149.113 20.7005C149.122 20.7005 149.131 20.6949 149.135 20.6863C149.406 20.1229 149.791 19.6864 150.289 19.3767C150.791 19.0645 151.369 18.9083 152.02 18.9083C152.17 18.9083 152.312 18.9219 152.448 18.949C152.715 18.9976 152.896 19.2391 152.896 19.5105V20.7898C152.896 21.1045 152.597 21.3327 152.285 21.2911C152.095 21.2504 151.905 21.23 151.715 21.23C151.145 21.23 150.683 21.3386 150.33 21.5559C149.99 21.7595 149.726 21.9971 149.536 22.2687C149.359 22.5402 149.237 22.8118 149.169 23.0833C149.115 23.3549 149.088 23.5585 149.088 23.6943V28.0428C149.088 28.5319 148.691 28.9283 148.202 28.9283H147.529C147.04 28.9283 146.644 28.5319 146.644 28.0428V20.0382Z" stroke="white" stroke-width="0.341667"/>
<defs>
<linearGradient id="paint0_linear_1356_18987" x1="53.5648" y1="16.9849" x2="4.5737" y2="19.4915" gradientUnits="userSpaceOnUse">
<stop stop-color="#66ABF7"/>
<stop offset="0.264409" stop-color="#7E9AEF"/>
<stop offset="0.509205" stop-color="#E082C2"/>
<stop offset="0.748793" stop-color="#ED8D9E"/>
<stop offset="0.961792" stop-color="#F0A468"/>
</linearGradient>
<linearGradient id="paint1_linear_1356_18987" x1="36.2319" y1="13.2077" x2="21.1608" y2="12.0032" gradientUnits="userSpaceOnUse">
<stop stop-color="#66ABF7"/>
<stop offset="0.264409" stop-color="#7E9AEF"/>
<stop offset="0.509205" stop-color="#E082C2"/>
<stop offset="0.748793" stop-color="#ED8D9E"/>
<stop offset="0.961792" stop-color="#F0A468"/>
</linearGradient>
<linearGradient id="paint2_linear_1356_18987" x1="46.2299" y1="9.08164" x2="35.6566" y2="7.86505" gradientUnits="userSpaceOnUse">
<stop stop-color="#66ABF7"/>
<stop offset="0.264409" stop-color="#7E9AEF"/>
<stop offset="0.509205" stop-color="#E082C2"/>
<stop offset="0.748793" stop-color="#ED8D9E"/>
<stop offset="0.961792" stop-color="#F0A468"/>
</linearGradient>
</defs>
</svg>
