<svg width="192" height="48" viewBox="0 0 192 48" fill="none" xmlns="http://www.w3.org/2000/svg">
<path d="M38.5974 27.5587C37.8706 27.1434 36.9882 27.2991 36.3653 27.8701C33.4065 30.8808 29.2538 32.3343 25.0492 31.8671C18.8202 31.1404 13.785 26.1052 13.1102 19.9281C12.643 15.6716 14.0965 11.5708 17.1072 8.61203C17.7301 8.04104 17.8339 7.10668 17.4186 6.37996C17.0034 5.65324 16.1728 5.28988 15.3942 5.49752C5.94684 7.67768 -0.489824 16.3464 0.0292616 26.0014C0.548348 36.0717 8.85372 44.429 18.9759 44.9481C19.3393 44.9481 19.7026 45 20.066 45C29.3057 45 37.4035 38.6671 39.5836 29.635C39.6874 28.7526 39.3241 27.9739 38.5974 27.5587Z" fill="url(#paint0_linear_1422_2338)"/>
<path d="M25.6045 12.3389L28.8508 12.7341L22.9541 19.0756C22.3573 19.6828 22.1928 20.604 22.4657 21.3693C22.7323 22.1862 23.4487 22.744 24.3247 22.8507L31.9509 23.7791C33.1876 23.9297 34.2858 23.0698 34.4364 21.8332C34.5869 20.5965 33.7271 19.4983 32.4904 19.3477L29.2441 18.9525L35.1408 12.611C35.7376 12.0038 35.9021 11.0826 35.6292 10.3173C35.3626 9.50046 34.6462 8.94261 33.7702 8.83596L26.144 7.9075C24.9073 7.75694 23.8091 8.61678 23.6585 9.85345C23.508 11.0901 24.3678 12.1884 25.6045 12.3389Z" fill="url(#paint1_linear_1422_2338)"/>
<path d="M47.0533 13.0772L44.7888 12.7211L49.0745 8.42262C49.5074 8.01187 49.6451 7.37053 49.4726 6.82774C49.2642 6.2793 48.7816 5.83507 48.2065 5.74462L42.8508 4.90235C41.9881 4.76668 41.1921 5.37816 41.0565 6.24081C40.9208 7.10347 41.4963 7.89382 42.359 8.02949L44.6235 8.38562L40.3378 12.6841C39.9049 13.0948 39.7672 13.7362 39.9397 14.279C40.1065 14.8577 40.5948 15.266 41.2058 15.3621L46.5255 16.1987C47.3882 16.3344 48.1785 15.7588 48.3142 14.8962C48.4858 14.0392 47.9159 13.2129 47.0533 13.0772Z" fill="url(#paint2_linear_1422_2338)"/>
<path d="M64.0106 19.6236C63.5573 20.1016 62.7681 20.0179 62.1875 19.7066C62.0783 19.648 61.9636 19.5958 61.8433 19.5498C61.3188 19.3272 60.7624 19.216 60.1743 19.216C59.8246 19.216 59.4829 19.2557 59.1491 19.3352C58.8312 19.4147 58.5371 19.5418 58.2669 19.7167C58.0126 19.8915 57.8059 20.122 57.647 20.4081C57.488 20.6783 57.4085 21.0042 57.4085 21.3857C57.4085 21.9579 57.6072 22.395 58.0046 22.697C58.402 22.9991 58.8948 23.2613 59.4829 23.4839C60.071 23.7064 60.7148 23.921 61.4142 24.1276C62.1135 24.3343 62.7573 24.6204 63.3454 24.986C63.9336 25.3516 64.4263 25.8364 64.8237 26.4404C65.2211 27.0444 65.4198 27.8471 65.4198 28.8485C65.4198 29.7545 65.2529 30.5493 64.9191 31.2328C64.5853 31.9004 64.1322 32.4567 63.56 32.9018C63.0037 33.3469 62.352 33.6807 61.6049 33.9032C60.8578 34.1257 60.071 34.237 59.2444 34.237C58.1954 34.237 57.186 34.0622 56.2164 33.7125C55.543 33.4696 54.9347 33.1117 54.3917 32.6388C53.9802 32.2806 54.0173 31.6533 54.4092 31.2738L55.0783 30.6258C55.5453 30.1735 56.3083 30.2724 56.8174 30.6768C57.0001 30.8219 57.1971 30.9516 57.4085 31.0659C58.0126 31.3679 58.6484 31.5189 59.316 31.5189C59.6657 31.5189 60.0154 31.4712 60.3651 31.3759C60.7148 31.2805 61.0327 31.1374 61.3188 30.9467C61.6049 30.7559 61.8354 30.5175 62.0102 30.2314C62.1851 29.9294 62.2725 29.5876 62.2725 29.2062C62.2725 28.5862 62.0738 28.1094 61.6764 27.7756C61.279 27.4418 60.7863 27.1636 60.1982 26.9411C59.61 26.7027 58.9663 26.4801 58.2669 26.2735C57.5675 26.0668 56.9237 25.7887 56.3356 25.439C55.7475 25.0734 55.2547 24.5965 54.8574 24.0084C54.46 23.4044 54.2613 22.6017 54.2613 21.6003C54.2613 20.726 54.4361 19.971 54.7858 19.3352C55.1514 18.6994 55.6203 18.1748 56.1926 17.7616C56.7807 17.3324 57.4483 17.0145 58.1954 16.8078C58.9424 16.6012 59.7054 16.4979 60.4843 16.4979C61.3744 16.4979 62.2328 16.633 63.0593 16.9032C63.5725 17.0678 64.0533 17.2973 64.5017 17.5917C64.9838 17.9083 65.0004 18.58 64.6034 18.9986L64.0106 19.6236Z" fill="#323232"/>
<path d="M68.1265 16.8192C68.1265 16.2467 68.5906 15.7826 69.1631 15.7826H69.951C70.5235 15.7826 70.9876 16.2467 70.9876 16.8192V32.7712C70.9876 33.3437 70.5235 33.8078 69.951 33.8078H69.1631C68.5906 33.8078 68.1265 33.3437 68.1265 32.7712V16.8192Z" fill="#323232"/>
<path d="M77.5122 29.0869C76.8943 29.0869 76.3905 29.6422 76.6596 30.1984C76.8279 30.5464 77.0599 30.8435 77.3554 31.0897C77.9276 31.5666 78.619 31.805 79.4297 31.805C80.145 31.805 80.7411 31.662 81.2179 31.3759C81.4242 31.2494 81.6194 31.1104 81.8034 30.9589C82.2328 30.6053 82.8559 30.5201 83.2996 30.8555L83.7019 31.1595C84.169 31.5126 84.2578 32.1914 83.825 32.586C83.3551 33.0144 82.8517 33.3422 82.3147 33.5694C81.4881 33.9191 80.6219 34.094 79.7158 34.094C78.8575 34.094 78.0468 33.9509 77.2838 33.6648C76.5209 33.3787 75.8612 32.9733 75.3049 32.4488C74.7485 31.9243 74.3035 31.2964 73.9697 30.5652C73.6518 29.8181 73.4928 28.9916 73.4928 28.0855C73.4928 27.1795 73.6518 26.3609 73.9697 25.6297C74.3035 24.8826 74.7485 24.2468 75.3049 23.7223C75.8612 23.1977 76.5209 22.7924 77.2838 22.5063C78.0468 22.2202 78.8575 22.0771 79.7158 22.0771C80.5106 22.0771 81.2338 22.2202 81.8855 22.5063C82.5531 22.7765 83.1174 23.1739 83.5784 23.6984C84.0552 24.223 84.4208 24.8747 84.6751 25.6536C84.9454 26.4165 85.0805 27.2987 85.0805 28.3001C85.0805 28.7347 84.7282 29.0869 84.2937 29.0869H77.5122ZM81.1629 26.9411C81.7431 26.9411 82.2387 26.4505 82.0443 25.9038C81.9135 25.5357 81.7095 25.2218 81.4325 24.9621C80.9239 24.4694 80.2165 24.223 79.3105 24.223C78.4521 24.223 77.7686 24.4694 77.26 24.9621C77.0192 25.203 76.8239 25.4837 76.6742 25.8042C76.4087 26.3728 76.912 26.9411 77.5395 26.9411H81.1629Z" fill="#323232"/>
<path d="M90.9959 29.0869C90.378 29.0869 89.8743 29.6422 90.1433 30.1984C90.3117 30.5464 90.5436 30.8435 90.8391 31.0897C91.4113 31.5666 92.1028 31.805 92.9134 31.805C93.6287 31.805 94.2248 31.662 94.7016 31.3759C94.908 31.2494 95.1031 31.1104 95.2871 30.9589C95.7165 30.6053 96.3396 30.5201 96.7834 30.8555L97.1856 31.1595C97.6528 31.5126 97.7415 32.1914 97.3087 32.586C96.8388 33.0144 96.3354 33.3422 95.7984 33.5694C94.9719 33.9191 94.1056 34.094 93.1995 34.094C92.3412 34.094 91.5305 33.9509 90.7676 33.6648C90.0046 33.3787 89.3449 32.9733 88.7886 32.4488C88.2323 31.9243 87.7872 31.2964 87.4534 30.5652C87.1355 29.8181 86.9765 28.9916 86.9765 28.0855C86.9765 27.1795 87.1355 26.3609 87.4534 25.6297C87.7872 24.8826 88.2323 24.2468 88.7886 23.7223C89.3449 23.1977 90.0046 22.7924 90.7676 22.5063C91.5305 22.2202 92.3412 22.0771 93.1995 22.0771C93.9943 22.0771 94.7175 22.2202 95.3692 22.5063C96.0368 22.7765 96.6011 23.1739 97.0621 23.6984C97.539 24.223 97.9045 24.8747 98.1589 25.6536C98.4291 26.4165 98.5642 27.2987 98.5642 28.3001C98.5642 28.7347 98.2119 29.0869 97.7774 29.0869H90.9959ZM94.6467 26.9411C95.2268 26.9411 95.7224 26.4505 95.528 25.9038C95.3972 25.5357 95.1932 25.2218 94.9162 24.9621C94.4076 24.4694 93.7002 24.223 92.7942 24.223C91.9359 24.223 91.2524 24.4694 90.7437 24.9621C90.5029 25.203 90.3076 25.4837 90.1579 25.8042C89.8924 26.3728 90.3958 26.9411 91.0232 26.9411H94.6467Z" fill="#323232"/>
<path d="M101.032 23.3999C101.032 22.8274 101.497 22.3632 102.069 22.3632H102.892C103.366 22.3632 103.751 22.7475 103.751 23.2216V24.0496C103.751 24.0663 103.764 24.0799 103.781 24.0799C103.792 24.0799 103.802 24.0742 103.807 24.065C104.219 23.3733 104.773 22.8696 105.467 22.554C106.167 22.2361 106.922 22.0771 107.732 22.0771C108.607 22.0771 109.393 22.2361 110.093 22.554C110.792 22.856 111.388 23.2772 111.881 23.8177C112.374 24.3581 112.747 24.9939 113.002 25.7251C113.256 26.4563 113.383 27.2431 113.383 28.0855C113.383 28.928 113.248 29.7148 112.978 30.446C112.708 31.1772 112.326 31.813 111.833 32.3534C111.356 32.8939 110.776 33.323 110.093 33.6409C109.409 33.943 108.662 34.094 107.852 34.094C107.311 34.094 106.834 34.0383 106.421 33.9271C106.008 33.8158 105.642 33.6727 105.324 33.4979C105.006 33.323 104.736 33.1402 104.514 32.9495C104.298 32.7497 104.12 32.5574 103.98 32.3724C103.97 32.3605 103.956 32.3534 103.941 32.3534C103.915 32.3534 103.894 32.3748 103.894 32.4011V38.2074C103.894 38.7799 103.43 39.244 102.857 39.244H102.069C101.497 39.244 101.032 38.7799 101.032 38.2074V23.3999ZM110.522 28.0855C110.522 27.6405 110.442 27.2113 110.284 26.798C110.14 26.3847 109.918 26.0192 109.616 25.7012C109.33 25.3833 108.98 25.129 108.567 24.9383C108.154 24.7475 107.685 24.6522 107.16 24.6522C106.636 24.6522 106.167 24.7475 105.753 24.9383C105.34 25.129 104.982 25.3833 104.68 25.7012C104.394 26.0192 104.172 26.3847 104.013 26.798C103.87 27.2113 103.798 27.6405 103.798 28.0855C103.798 28.5306 103.87 28.9598 104.013 29.3731C104.172 29.7863 104.394 30.1519 104.68 30.4698C104.982 30.7877 105.34 31.0421 105.753 31.2328C106.167 31.4236 106.636 31.5189 107.16 31.5189C107.685 31.5189 108.154 31.4236 108.567 31.2328C108.98 31.0421 109.33 30.7877 109.616 30.4698C109.918 30.1519 110.14 29.7863 110.284 29.3731C110.442 28.9598 110.522 28.5306 110.522 28.0855Z" fill="#323232"/>
<path d="M120.953 17.9637C120.953 17.3912 121.418 16.9271 121.99 16.9271H122.921C123.494 16.9271 123.958 17.3912 123.958 17.9637V30.0531C123.958 30.6256 124.422 31.0897 124.994 31.0897H130.098C130.67 31.0897 131.134 31.5539 131.134 32.1264V32.7712C131.134 33.3437 130.67 33.8078 130.098 33.8078H121.99C121.418 33.8078 120.953 33.3437 120.953 32.7712V17.9637Z" fill="#323232"/>
<path d="M131.832 28.0855C131.832 27.1795 131.991 26.3609 132.309 25.6297C132.643 24.8826 133.088 24.2468 133.645 23.7223C134.201 23.1977 134.861 22.7924 135.624 22.5063C136.386 22.2202 137.197 22.0771 138.055 22.0771C138.914 22.0771 139.724 22.2202 140.487 22.5063C141.25 22.7924 141.91 23.1977 142.466 23.7223C143.023 24.2468 143.46 24.8826 143.778 25.6297C144.112 26.3609 144.278 27.1795 144.278 28.0855C144.278 28.9916 144.112 29.8181 143.778 30.5652C143.46 31.2964 143.023 31.9243 142.466 32.4488C141.91 32.9733 141.25 33.3787 140.487 33.6648C139.724 33.9509 138.914 34.094 138.055 34.094C137.197 34.094 136.386 33.9509 135.624 33.6648C134.861 33.3787 134.201 32.9733 133.645 32.4488C133.088 31.9243 132.643 31.2964 132.309 30.5652C131.991 29.8181 131.832 28.9916 131.832 28.0855ZM134.694 28.0855C134.694 28.5306 134.765 28.9598 134.908 29.3731C135.067 29.7863 135.29 30.1519 135.576 30.4698C135.878 30.7877 136.235 31.0421 136.649 31.2328C137.062 31.4236 137.531 31.5189 138.055 31.5189C138.58 31.5189 139.049 31.4236 139.462 31.2328C139.875 31.0421 140.225 30.7877 140.511 30.4698C140.813 30.1519 141.036 29.7863 141.179 29.3731C141.338 28.9598 141.417 28.5306 141.417 28.0855C141.417 27.6405 141.338 27.2113 141.179 26.798C141.036 26.3847 140.813 26.0192 140.511 25.7012C140.225 25.3833 139.875 25.129 139.462 24.9383C139.049 24.7475 138.58 24.6522 138.055 24.6522C137.531 24.6522 137.062 24.7475 136.649 24.9383C136.235 25.129 135.878 25.3833 135.576 25.7012C135.29 26.0192 135.067 26.3847 134.908 26.798C134.765 27.2113 134.694 27.6405 134.694 28.0855Z" fill="#323232"/>
<path d="M145.374 23.7918C145.095 23.1099 145.597 22.3632 146.334 22.3632H147.2C147.63 22.3632 148.015 22.6289 148.168 23.0308L150.957 30.3521C150.963 30.3656 150.975 30.3745 150.99 30.3745C151.004 30.3745 151.017 30.3656 151.022 30.3522L153.834 23.0283C153.988 22.6277 154.373 22.3632 154.802 22.3632H155.5C156.231 22.3632 156.732 23.0995 156.464 23.7797L152.774 33.151C152.618 33.5473 152.236 33.8078 151.81 33.8078H150.16C149.739 33.8078 149.36 33.553 149.201 33.1631L145.374 23.7918Z" fill="#323232"/>
<path d="M161.644 29.0869C161.026 29.0869 160.522 29.6422 160.791 30.1984C160.959 30.5464 161.191 30.8435 161.487 31.0897C162.059 31.5666 162.751 31.805 163.561 31.805C164.276 31.805 164.873 31.662 165.349 31.3759C165.556 31.2494 165.751 31.1104 165.935 30.9589C166.364 30.6053 166.987 30.5201 167.431 30.8555L167.833 31.1595C168.3 31.5126 168.389 32.1914 167.956 32.586C167.487 33.0144 166.983 33.3422 166.446 33.5694C165.62 33.9191 164.753 34.094 163.847 34.094C162.989 34.094 162.178 33.9509 161.415 33.6648C160.652 33.3787 159.993 32.9733 159.436 32.4488C158.88 31.9243 158.435 31.2964 158.101 30.5652C157.783 29.8181 157.624 28.9916 157.624 28.0855C157.624 27.1795 157.783 26.3609 158.101 25.6297C158.435 24.8826 158.88 24.2468 159.436 23.7223C159.993 23.1977 160.652 22.7924 161.415 22.5063C162.178 22.2202 162.989 22.0771 163.847 22.0771C164.642 22.0771 165.365 22.2202 166.017 22.5063C166.685 22.7765 167.249 23.1739 167.71 23.6984C168.187 24.223 168.552 24.8747 168.807 25.6536C169.077 26.4165 169.212 27.2987 169.212 28.3001C169.212 28.7347 168.86 29.0869 168.425 29.0869H161.644ZM165.294 26.9411C165.875 26.9411 166.37 26.4505 166.176 25.9038C166.045 25.5357 165.841 25.2218 165.564 24.9621C165.055 24.4694 164.348 24.223 163.442 24.223C162.584 24.223 161.9 24.4694 161.391 24.9621C161.151 25.203 160.955 25.4837 160.806 25.8042C160.54 26.3728 161.043 26.9411 161.671 26.9411H165.294Z" fill="#323232"/>
<path d="M171.68 23.3999C171.68 22.8274 172.144 22.3632 172.717 22.3632H173.635C174.136 22.3632 174.541 22.7689 174.541 23.2693V24.1461C174.541 24.1622 174.554 24.1753 174.571 24.1753C174.582 24.1753 174.592 24.1688 174.597 24.1586C174.915 23.4991 175.365 22.9881 175.948 22.6255C176.536 22.2599 177.212 22.0771 177.975 22.0771C178.15 22.0771 178.317 22.093 178.475 22.1248C178.788 22.1816 179 22.4644 179 22.7821V24.2799C179 24.6483 178.65 24.9154 178.285 24.8667C178.062 24.8191 177.84 24.7952 177.617 24.7952C176.95 24.7952 176.409 24.9224 175.996 25.1767C175.598 25.4151 175.288 25.6933 175.066 26.0112C174.859 26.3291 174.716 26.647 174.637 26.9649C174.573 27.2828 174.541 27.5213 174.541 27.6802V32.7712C174.541 33.3437 174.077 33.8078 173.505 33.8078H172.717C172.144 33.8078 171.68 33.3437 171.68 32.7712V23.3999Z" fill="#323232"/>
<path d="M64.0106 19.6236C63.5573 20.1016 62.7681 20.0179 62.1875 19.7066C62.0783 19.648 61.9636 19.5958 61.8433 19.5498C61.3188 19.3272 60.7624 19.216 60.1743 19.216C59.8246 19.216 59.4829 19.2557 59.1491 19.3352C58.8312 19.4147 58.5371 19.5418 58.2669 19.7167C58.0126 19.8915 57.8059 20.122 57.647 20.4081C57.488 20.6783 57.4085 21.0042 57.4085 21.3857C57.4085 21.9579 57.6072 22.395 58.0046 22.697C58.402 22.9991 58.8948 23.2613 59.4829 23.4839C60.071 23.7064 60.7148 23.921 61.4142 24.1276C62.1135 24.3343 62.7573 24.6204 63.3454 24.986C63.9336 25.3516 64.4263 25.8364 64.8237 26.4404C65.2211 27.0444 65.4198 27.8471 65.4198 28.8485C65.4198 29.7545 65.2529 30.5493 64.9191 31.2328C64.5853 31.9004 64.1322 32.4567 63.56 32.9018C63.0037 33.3469 62.352 33.6807 61.6049 33.9032C60.8578 34.1257 60.071 34.237 59.2444 34.237C58.1954 34.237 57.186 34.0622 56.2164 33.7125C55.543 33.4696 54.9347 33.1117 54.3917 32.6388C53.9802 32.2806 54.0173 31.6533 54.4092 31.2738L55.0783 30.6258C55.5453 30.1735 56.3083 30.2724 56.8174 30.6768C57.0001 30.8219 57.1971 30.9516 57.4085 31.0659C58.0126 31.3679 58.6484 31.5189 59.316 31.5189C59.6657 31.5189 60.0154 31.4712 60.3651 31.3759C60.7148 31.2805 61.0327 31.1374 61.3188 30.9467C61.6049 30.7559 61.8354 30.5175 62.0102 30.2314C62.1851 29.9294 62.2725 29.5876 62.2725 29.2062C62.2725 28.5862 62.0738 28.1094 61.6764 27.7756C61.279 27.4418 60.7863 27.1636 60.1982 26.9411C59.61 26.7027 58.9663 26.4801 58.2669 26.2735C57.5675 26.0668 56.9237 25.7887 56.3356 25.439C55.7475 25.0734 55.2547 24.5965 54.8574 24.0084C54.46 23.4044 54.2613 22.6017 54.2613 21.6003C54.2613 20.726 54.4361 19.971 54.7858 19.3352C55.1514 18.6994 55.6203 18.1748 56.1926 17.7616C56.7807 17.3324 57.4483 17.0145 58.1954 16.8078C58.9424 16.6012 59.7054 16.4979 60.4843 16.4979C61.3744 16.4979 62.2328 16.633 63.0593 16.9032C63.5725 17.0678 64.0533 17.2973 64.5017 17.5917C64.9838 17.9083 65.0004 18.58 64.6034 18.9986L64.0106 19.6236Z" stroke="#323232" stroke-width="0.4"/>
<path d="M68.1265 16.8192C68.1265 16.2467 68.5906 15.7826 69.1631 15.7826H69.951C70.5235 15.7826 70.9876 16.2467 70.9876 16.8192V32.7712C70.9876 33.3437 70.5235 33.8078 69.951 33.8078H69.1631C68.5906 33.8078 68.1265 33.3437 68.1265 32.7712V16.8192Z" stroke="#323232" stroke-width="0.4"/>
<path d="M77.5122 29.0869C76.8943 29.0869 76.3905 29.6422 76.6596 30.1984C76.8279 30.5464 77.0599 30.8435 77.3554 31.0897C77.9276 31.5666 78.619 31.805 79.4297 31.805C80.145 31.805 80.7411 31.662 81.2179 31.3759C81.4242 31.2494 81.6194 31.1104 81.8034 30.9589C82.2328 30.6053 82.8559 30.5201 83.2996 30.8555L83.7019 31.1595C84.169 31.5126 84.2578 32.1914 83.825 32.586C83.3551 33.0144 82.8517 33.3422 82.3147 33.5694C81.4881 33.9191 80.6219 34.094 79.7158 34.094C78.8575 34.094 78.0468 33.9509 77.2838 33.6648C76.5209 33.3787 75.8612 32.9733 75.3049 32.4488C74.7485 31.9243 74.3035 31.2964 73.9697 30.5652C73.6518 29.8181 73.4928 28.9916 73.4928 28.0855C73.4928 27.1795 73.6518 26.3609 73.9697 25.6297C74.3035 24.8826 74.7485 24.2468 75.3049 23.7223C75.8612 23.1977 76.5209 22.7924 77.2838 22.5063C78.0468 22.2202 78.8575 22.0771 79.7158 22.0771C80.5106 22.0771 81.2338 22.2202 81.8855 22.5063C82.5531 22.7765 83.1174 23.1739 83.5784 23.6984C84.0552 24.223 84.4208 24.8747 84.6751 25.6536C84.9454 26.4165 85.0805 27.2987 85.0805 28.3001C85.0805 28.7347 84.7282 29.0869 84.2937 29.0869H77.5122ZM81.1629 26.9411C81.7431 26.9411 82.2387 26.4505 82.0443 25.9038C81.9135 25.5357 81.7095 25.2218 81.4325 24.9621C80.9239 24.4694 80.2165 24.223 79.3105 24.223C78.4521 24.223 77.7686 24.4694 77.26 24.9621C77.0192 25.203 76.8239 25.4837 76.6742 25.8042C76.4087 26.3728 76.912 26.9411 77.5395 26.9411H81.1629Z" stroke="#323232" stroke-width="0.4"/>
<path d="M90.9959 29.0869C90.378 29.0869 89.8743 29.6422 90.1433 30.1984C90.3117 30.5464 90.5436 30.8435 90.8391 31.0897C91.4113 31.5666 92.1028 31.805 92.9134 31.805C93.6287 31.805 94.2248 31.662 94.7016 31.3759C94.908 31.2494 95.1031 31.1104 95.2871 30.9589C95.7165 30.6053 96.3396 30.5201 96.7834 30.8555L97.1856 31.1595C97.6528 31.5126 97.7415 32.1914 97.3087 32.586C96.8388 33.0144 96.3354 33.3422 95.7984 33.5694C94.9719 33.9191 94.1056 34.094 93.1995 34.094C92.3412 34.094 91.5305 33.9509 90.7676 33.6648C90.0046 33.3787 89.3449 32.9733 88.7886 32.4488C88.2323 31.9243 87.7872 31.2964 87.4534 30.5652C87.1355 29.8181 86.9765 28.9916 86.9765 28.0855C86.9765 27.1795 87.1355 26.3609 87.4534 25.6297C87.7872 24.8826 88.2323 24.2468 88.7886 23.7223C89.3449 23.1977 90.0046 22.7924 90.7676 22.5063C91.5305 22.2202 92.3412 22.0771 93.1995 22.0771C93.9943 22.0771 94.7175 22.2202 95.3692 22.5063C96.0368 22.7765 96.6011 23.1739 97.0621 23.6984C97.539 24.223 97.9045 24.8747 98.1589 25.6536C98.4291 26.4165 98.5642 27.2987 98.5642 28.3001C98.5642 28.7347 98.2119 29.0869 97.7774 29.0869H90.9959ZM94.6467 26.9411C95.2268 26.9411 95.7224 26.4505 95.528 25.9038C95.3972 25.5357 95.1932 25.2218 94.9162 24.9621C94.4076 24.4694 93.7002 24.223 92.7942 24.223C91.9359 24.223 91.2524 24.4694 90.7437 24.9621C90.5029 25.203 90.3076 25.4837 90.1579 25.8042C89.8924 26.3728 90.3958 26.9411 91.0232 26.9411H94.6467Z" stroke="#323232" stroke-width="0.4"/>
<path d="M101.032 23.3999C101.032 22.8274 101.497 22.3632 102.069 22.3632H102.892C103.366 22.3632 103.751 22.7475 103.751 23.2216V24.0496C103.751 24.0663 103.764 24.0799 103.781 24.0799C103.792 24.0799 103.802 24.0742 103.807 24.065C104.219 23.3733 104.773 22.8696 105.467 22.554C106.167 22.2361 106.922 22.0771 107.732 22.0771C108.607 22.0771 109.393 22.2361 110.093 22.554C110.792 22.856 111.388 23.2772 111.881 23.8177C112.374 24.3581 112.747 24.9939 113.002 25.7251C113.256 26.4563 113.383 27.2431 113.383 28.0855C113.383 28.928 113.248 29.7148 112.978 30.446C112.708 31.1772 112.326 31.813 111.833 32.3534C111.356 32.8939 110.776 33.323 110.093 33.6409C109.409 33.943 108.662 34.094 107.852 34.094C107.311 34.094 106.834 34.0383 106.421 33.9271C106.008 33.8158 105.642 33.6727 105.324 33.4979C105.006 33.323 104.736 33.1402 104.514 32.9495C104.298 32.7497 104.12 32.5574 103.98 32.3724C103.97 32.3605 103.956 32.3534 103.941 32.3534C103.915 32.3534 103.894 32.3748 103.894 32.4011V38.2074C103.894 38.7799 103.43 39.244 102.857 39.244H102.069C101.497 39.244 101.032 38.7799 101.032 38.2074V23.3999ZM110.522 28.0855C110.522 27.6405 110.442 27.2113 110.284 26.798C110.14 26.3847 109.918 26.0192 109.616 25.7012C109.33 25.3833 108.98 25.129 108.567 24.9383C108.154 24.7475 107.685 24.6522 107.16 24.6522C106.636 24.6522 106.167 24.7475 105.753 24.9383C105.34 25.129 104.982 25.3833 104.68 25.7012C104.394 26.0192 104.172 26.3847 104.013 26.798C103.87 27.2113 103.798 27.6405 103.798 28.0855C103.798 28.5306 103.87 28.9598 104.013 29.3731C104.172 29.7863 104.394 30.1519 104.68 30.4698C104.982 30.7877 105.34 31.0421 105.753 31.2328C106.167 31.4236 106.636 31.5189 107.16 31.5189C107.685 31.5189 108.154 31.4236 108.567 31.2328C108.98 31.0421 109.33 30.7877 109.616 30.4698C109.918 30.1519 110.14 29.7863 110.284 29.3731C110.442 28.9598 110.522 28.5306 110.522 28.0855Z" stroke="#323232" stroke-width="0.4"/>
<path d="M120.953 17.9637C120.953 17.3912 121.418 16.9271 121.99 16.9271H122.921C123.494 16.9271 123.958 17.3912 123.958 17.9637V30.0531C123.958 30.6256 124.422 31.0897 124.994 31.0897H130.098C130.67 31.0897 131.134 31.5539 131.134 32.1264V32.7712C131.134 33.3437 130.67 33.8078 130.098 33.8078H121.99C121.418 33.8078 120.953 33.3437 120.953 32.7712V17.9637Z" stroke="#323232" stroke-width="0.4"/>
<path d="M131.832 28.0855C131.832 27.1795 131.991 26.3609 132.309 25.6297C132.643 24.8826 133.088 24.2468 133.645 23.7223C134.201 23.1977 134.861 22.7924 135.624 22.5063C136.386 22.2202 137.197 22.0771 138.055 22.0771C138.914 22.0771 139.724 22.2202 140.487 22.5063C141.25 22.7924 141.91 23.1977 142.466 23.7223C143.023 24.2468 143.46 24.8826 143.778 25.6297C144.112 26.3609 144.278 27.1795 144.278 28.0855C144.278 28.9916 144.112 29.8181 143.778 30.5652C143.46 31.2964 143.023 31.9243 142.466 32.4488C141.91 32.9733 141.25 33.3787 140.487 33.6648C139.724 33.9509 138.914 34.094 138.055 34.094C137.197 34.094 136.386 33.9509 135.624 33.6648C134.861 33.3787 134.201 32.9733 133.645 32.4488C133.088 31.9243 132.643 31.2964 132.309 30.5652C131.991 29.8181 131.832 28.9916 131.832 28.0855ZM134.694 28.0855C134.694 28.5306 134.765 28.9598 134.908 29.3731C135.067 29.7863 135.29 30.1519 135.576 30.4698C135.878 30.7877 136.235 31.0421 136.649 31.2328C137.062 31.4236 137.531 31.5189 138.055 31.5189C138.58 31.5189 139.049 31.4236 139.462 31.2328C139.875 31.0421 140.225 30.7877 140.511 30.4698C140.813 30.1519 141.036 29.7863 141.179 29.3731C141.338 28.9598 141.417 28.5306 141.417 28.0855C141.417 27.6405 141.338 27.2113 141.179 26.798C141.036 26.3847 140.813 26.0192 140.511 25.7012C140.225 25.3833 139.875 25.129 139.462 24.9383C139.049 24.7475 138.58 24.6522 138.055 24.6522C137.531 24.6522 137.062 24.7475 136.649 24.9383C136.235 25.129 135.878 25.3833 135.576 25.7012C135.29 26.0192 135.067 26.3847 134.908 26.798C134.765 27.2113 134.694 27.6405 134.694 28.0855Z" stroke="#323232" stroke-width="0.4"/>
<path d="M145.374 23.7918C145.095 23.1099 145.597 22.3632 146.334 22.3632H147.2C147.63 22.3632 148.015 22.6289 148.168 23.0308L150.957 30.3521C150.963 30.3656 150.975 30.3745 150.99 30.3745C151.004 30.3745 151.017 30.3656 151.022 30.3522L153.834 23.0283C153.988 22.6277 154.373 22.3632 154.802 22.3632H155.5C156.231 22.3632 156.732 23.0995 156.464 23.7797L152.774 33.151C152.618 33.5473 152.236 33.8078 151.81 33.8078H150.16C149.739 33.8078 149.36 33.553 149.201 33.1631L145.374 23.7918Z" stroke="#323232" stroke-width="0.4"/>
<path d="M161.644 29.0869C161.026 29.0869 160.522 29.6422 160.791 30.1984C160.959 30.5464 161.191 30.8435 161.487 31.0897C162.059 31.5666 162.751 31.805 163.561 31.805C164.276 31.805 164.873 31.662 165.349 31.3759C165.556 31.2494 165.751 31.1104 165.935 30.9589C166.364 30.6053 166.987 30.5201 167.431 30.8555L167.833 31.1595C168.3 31.5126 168.389 32.1914 167.956 32.586C167.487 33.0144 166.983 33.3422 166.446 33.5694C165.62 33.9191 164.753 34.094 163.847 34.094C162.989 34.094 162.178 33.9509 161.415 33.6648C160.652 33.3787 159.993 32.9733 159.436 32.4488C158.88 31.9243 158.435 31.2964 158.101 30.5652C157.783 29.8181 157.624 28.9916 157.624 28.0855C157.624 27.1795 157.783 26.3609 158.101 25.6297C158.435 24.8826 158.88 24.2468 159.436 23.7223C159.993 23.1977 160.652 22.7924 161.415 22.5063C162.178 22.2202 162.989 22.0771 163.847 22.0771C164.642 22.0771 165.365 22.2202 166.017 22.5063C166.685 22.7765 167.249 23.1739 167.71 23.6984C168.187 24.223 168.552 24.8747 168.807 25.6536C169.077 26.4165 169.212 27.2987 169.212 28.3001C169.212 28.7347 168.86 29.0869 168.425 29.0869H161.644ZM165.294 26.9411C165.875 26.9411 166.37 26.4505 166.176 25.9038C166.045 25.5357 165.841 25.2218 165.564 24.9621C165.055 24.4694 164.348 24.223 163.442 24.223C162.584 24.223 161.9 24.4694 161.391 24.9621C161.151 25.203 160.955 25.4837 160.806 25.8042C160.54 26.3728 161.043 26.9411 161.671 26.9411H165.294Z" stroke="#323232" stroke-width="0.4"/>
<path d="M171.68 23.3999C171.68 22.8274 172.144 22.3632 172.717 22.3632H173.635C174.136 22.3632 174.541 22.7689 174.541 23.2693V24.1461C174.541 24.1622 174.554 24.1753 174.571 24.1753C174.582 24.1753 174.592 24.1688 174.597 24.1586C174.915 23.4991 175.365 22.9881 175.948 22.6255C176.536 22.2599 177.212 22.0771 177.975 22.0771C178.15 22.0771 178.317 22.093 178.475 22.1248C178.788 22.1816 179 22.4644 179 22.7821V24.2799C179 24.6483 178.65 24.9154 178.285 24.8667C178.062 24.8191 177.84 24.7952 177.617 24.7952C176.95 24.7952 176.409 24.9224 175.996 25.1767C175.598 25.4151 175.288 25.6933 175.066 26.0112C174.859 26.3291 174.716 26.647 174.637 26.9649C174.573 27.2828 174.541 27.5213 174.541 27.6802V32.7712C174.541 33.3437 174.077 33.8078 173.505 33.8078H172.717C172.144 33.8078 171.68 33.3437 171.68 32.7712V23.3999Z" stroke="#323232" stroke-width="0.4"/>
<defs>
<linearGradient id="paint0_linear_1422_2338" x1="62.71" y1="19.8252" x2="5.35457" y2="22.7598" gradientUnits="userSpaceOnUse">
<stop stop-color="#66ABF7"/>
<stop offset="0.264409" stop-color="#7E9AEF"/>
<stop offset="0.509205" stop-color="#E082C2"/>
<stop offset="0.748793" stop-color="#ED8D9E"/>
<stop offset="0.961792" stop-color="#F0A468"/>
</linearGradient>
<linearGradient id="paint1_linear_1422_2338" x1="42.4178" y1="15.4032" x2="24.7735" y2="13.9931" gradientUnits="userSpaceOnUse">
<stop stop-color="#66ABF7"/>
<stop offset="0.264409" stop-color="#7E9AEF"/>
<stop offset="0.509205" stop-color="#E082C2"/>
<stop offset="0.748793" stop-color="#ED8D9E"/>
<stop offset="0.961792" stop-color="#F0A468"/>
</linearGradient>
<linearGradient id="paint2_linear_1422_2338" x1="54.123" y1="10.5727" x2="41.7445" y2="9.14844" gradientUnits="userSpaceOnUse">
<stop stop-color="#66ABF7"/>
<stop offset="0.264409" stop-color="#7E9AEF"/>
<stop offset="0.509205" stop-color="#E082C2"/>
<stop offset="0.748793" stop-color="#ED8D9E"/>
<stop offset="0.961792" stop-color="#F0A468"/>
</linearGradient>
</defs>
</svg>
