<svg width="41" height="40" viewBox="0 0 41 40" fill="none" xmlns="http://www.w3.org/2000/svg">
<rect opacity="0.9" x="0.5" width="40" height="40" rx="20" fill="url(#paint0_linear_2_8077)"/>
<path d="M18.4331 28.9945C19.0811 30.2347 20.9806 31.285 22.9973 31.285C29.0029 31.285 33.3269 25.7599 33.3269 18.8995C33.3269 12.3241 27.9582 7.40234 21.0532 7.40234C12.461 7.40234 7.90234 13.1677 7.90234 19.4526C7.90234 22.3744 9.45542 26.0057 11.9415 27.1621C12.3213 27.3409 12.5225 27.2627 12.6063 26.8995C12.6733 26.6202 13.0085 25.2739 13.1593 24.6426C13.2152 24.4415 13.1649 24.2236 13.0197 24.0727C12.1984 23.0727 11.5392 21.2403 11.5392 19.5308C11.5392 15.1398 14.8632 10.8884 20.528 10.8884C25.4219 10.8884 28.8465 14.218 28.8465 18.9889C28.8465 24.3744 26.1258 28.1063 22.5839 28.1063C20.6286 28.1063 19.1649 26.4917 19.6342 24.5085C20.1984 22.1398 21.2822 19.5867 21.2822 17.8772C21.2822 16.3465 20.461 15.0727 18.7627 15.0727C16.7627 15.0727 15.1593 17.1398 15.1593 19.9051C15.1593 21.6705 15.7571 22.8604 15.7571 22.8604C15.7571 22.8604 13.785 31.2012 13.4219 32.7543C13.0085 34.542 13.1984 37.1063 13.3772 38.6705C13.785 38.8269 14.1873 38.9833 14.6063 39.1118C15.4163 37.8102 16.7236 35.5197 17.1873 33.7208C17.4331 32.799 18.4331 28.9945 18.4331 28.9945Z" fill="white"/>
<defs>
<linearGradient id="paint0_linear_2_8077" x1="0.5" y1="20" x2="58.5062" y2="21.1106" gradientUnits="userSpaceOnUse">
<stop stop-color="#904E95"/>
<stop offset="1" stop-color="#E96443"/>
</linearGradient>
</defs>
</svg>
