<svg width="41" height="40" viewBox="0 0 41 40" fill="none" xmlns="http://www.w3.org/2000/svg">
<rect opacity="0.9" x="0.5" width="40" height="40" rx="20" fill="url(#paint0_linear_2_8073)"/>
<path d="M30.3027 15.6771C30.3027 15.8958 30.3027 16.1146 30.3027 16.3021C30.3027 22.7708 25.3652 30.2396 16.3652 30.2396C13.584 30.2396 11.0215 29.4271 8.83398 28.0521C9.20898 28.0833 9.61523 28.1146 9.99023 28.1146C12.2715 28.1146 14.3965 27.3333 16.084 26.0208C13.9277 25.9896 12.1152 24.5521 11.5215 22.6146C11.834 22.6771 12.1152 22.7083 12.459 22.7083C12.8965 22.7083 13.334 22.6458 13.7402 22.5208C11.4902 22.0833 9.80273 20.1146 9.80273 17.7396C9.80273 17.7083 9.80273 17.7083 9.80273 17.6771C10.459 18.0521 11.209 18.2708 12.0215 18.3021C10.709 17.4271 9.83398 15.9271 9.83398 14.2083C9.83398 13.3021 10.084 12.4583 10.4902 11.7396C12.8965 14.7083 16.5215 16.6458 20.584 16.8646C20.4902 16.5208 20.459 16.1146 20.459 15.7396C20.459 13.0208 22.6465 10.8333 25.3652 10.8333C26.7715 10.8333 28.0527 11.4271 28.9277 12.3646C30.0527 12.1458 31.084 11.7396 32.0527 11.1771C31.6777 12.3333 30.8965 13.2708 29.8965 13.8958C30.8965 13.7708 31.834 13.5208 32.709 13.1146C32.084 14.1146 31.2715 14.9896 30.3027 15.6771Z" fill="white"/>
<defs>
<linearGradient id="paint0_linear_2_8073" x1="0.5" y1="20" x2="58.5062" y2="21.1106" gradientUnits="userSpaceOnUse">
<stop stop-color="#904E95"/>
<stop offset="1" stop-color="#E96443"/>
</linearGradient>
</defs>
</svg>
